<svg id="CUSTOMER_3" data-name="CUSTOMER 3" xmlns="http://www.w3.org/2000/svg" viewBox="0 0 1600 1400"><defs><style>.cls-1{fill:#87bfc1;}.cls-2{fill:#fff;}.cls-3{fill:#de9244;}.cls-4{fill:#262424;}</style></defs><title>Lead Generation</title><circle class="cls-1" cx="1142.7" cy="729.6" r="96.14"/><circle class="cls-2" cx="1142.7" cy="700.73" r="36.02"/><path class="cls-2" d="M1208.14,777.4a81,81,0,0,1-130.88,0A68.83,68.83,0,0,1,1109.73,738a49.77,49.77,0,0,0,66,0A68.83,68.83,0,0,1,1208.14,777.4Z"/><circle class="cls-3" cx="1280.95" cy="389.73" r="65.36"/><circle class="cls-2" cx="1280.95" cy="370.1" r="24.49"/><path class="cls-2" d="M1325.44,422.23a55.09,55.09,0,0,1-89,0,46.8,46.8,0,0,1,22.07-26.77,33.84,33.84,0,0,0,44.84,0A46.8,46.8,0,0,1,1325.44,422.23Z"/><circle class="cls-1" cx="1046.56" cy="155.14" r="96.14"/><circle class="cls-2" cx="1046.56" cy="126.27" r="36.02"/><path class="cls-2" d="M1112,202.95a81,81,0,0,1-130.88,0,68.83,68.83,0,0,1,32.47-39.37,49.77,49.77,0,0,0,66,0A68.83,68.83,0,0,1,1112,202.95Z"/><circle class="cls-1" cx="1027.75" cy="615.98" r="13.77"/><circle class="cls-3" cx="1096.67" cy="318.7" r="8.24"/><path class="cls-1" d="M1254.21,218.68l3.09,8.47a19.24,19.24,0,0,0,11.48,11.48l8.47,3.09-8.47,3.09a19.24,19.24,0,0,0-11.48,11.48l-3.09,8.47-3.09-8.47a19.24,19.24,0,0,0-11.48-11.48l-8.47-3.09,8.47-3.09a19.24,19.24,0,0,0,11.48-11.48Z"/><path class="cls-3" d="M1271.56,521l4.5,12.35a28,28,0,0,0,16.73,16.73l12.35,4.5-12.35,4.5a28,28,0,0,0-16.73,16.73l-4.5,12.35-4.5-12.35a28,28,0,0,0-16.73-16.73l-12.35-4.5,12.35-4.5a28,28,0,0,0,16.73-16.73Z"/><path class="cls-3" d="M927.16,703.37a210.61,210.61,0,0,1-7.74,33.38s-12.06,5.44-31,12.79C849,764.85,779.72,788.4,727.13,788.4c-77.87,0-51.75-124.29,31.34-117l83.88-3,39.2-91.64,41.06-4.9S936.9,639.65,927.16,703.37Z"/><path class="cls-4" d="M891.76,709.21a2.71,2.71,0,0,1-1.68-.58l-41.86-32.84a2.72,2.72,0,1,1,3.36-4.28l41.86,32.84A2.72,2.72,0,0,1,891.76,709.21Z"/><path class="cls-2" d="M927.16,703.37a210.61,210.61,0,0,1-7.74,33.38s-12.06,5.44-31,12.79c-0.52-10.08,3.16-21.18,11-30.4S917.26,704.61,927.16,703.37Z"/><path class="cls-2" d="M367.72,561.15s18.54-45.29,22.51-49.79,27.81-16.42,38.67-14.3,8.21,23.84,7.95,29.66-12.71,12.18-12.71,12.18,14.57-4.24,15.63,1.06-28.08,16.42-28.08,16.42,15.36-1.59,17,1.85-21.72,15.1-30.72,17S367.72,561.15,367.72,561.15Z"/><path class="cls-4" d="M396.44,578c-10.41,0-28.23-13.12-30.35-14.72a2.72,2.72,0,0,1-.88-3.2c3.13-7.63,18.92-46,23-50.56,4.63-5.24,29.29-17.5,41.23-15.17,12.16,2.37,10.83,22,10.27,30.4-0.05.81-.1,1.51-0.13,2.06-0.13,2.81-2,5.49-4.44,7.78a10.32,10.32,0,0,1,4.74,1.22,5.35,5.35,0,0,1,2.56,3.59c0.65,3.23-1.68,6.7-15.13,13.18L425,553.69c3,0.52,5.25,1.56,6.1,3.41a3.84,3.84,0,0,1-.16,3.42c-2.86,5.67-24.59,15.71-32.49,17.34A10,10,0,0,1,396.44,578ZM371,560.21c8.07,5.78,21,13.4,26.32,12.31,7.68-1.58,23.38-9.54,27.71-13.32-2.57-.56-8-0.64-13.11-0.12a2.72,2.72,0,0,1-1.25-5.24C423.39,549,435,543,436.89,540.35c-1.4-.77-7.09-0.26-12,1.16a2.72,2.72,0,0,1-2-5c4.63-2.37,11.11-7.12,11.24-9.89,0-.58.08-1.32,0.13-2.18,0.43-6.36,1.57-23.24-5.88-24.69-9.46-1.84-32.46,9.29-36.11,13.43C389.69,516.07,378.23,542.75,371,560.21Z"/><path class="cls-1" d="M624.42,718.49a245.49,245.49,0,0,1-117.68-461L746.41,126.68a26.78,26.78,0,0,1,36.34,10.66L825,214.69A26.82,26.82,0,0,1,814.34,251L575.65,381.32C525,409,506,472.28,533.2,522.44a103.85,103.85,0,0,0,141,41.59L913.86,433.22a26.77,26.77,0,0,1,36.34,10.66l42.26,77.35a26.79,26.79,0,0,1-10.67,36.35L742.12,688.4A244,244,0,0,1,649,717.26C640.83,718.07,632.56,718.49,624.42,718.49Z"/><path class="cls-3" d="M653.63,177.36l92.78-50.68a26.78,26.78,0,0,1,36.34,10.66L825,214.69A26.82,26.82,0,0,1,814.34,251l-92.78,50.68Z"/><path class="cls-3" d="M821.08,483.9l92.78-50.68a26.77,26.77,0,0,1,36.34,10.66l42.26,77.35a26.79,26.79,0,0,1-10.67,36.35L889,608.26Z"/><path class="cls-3" d="M527.71,673s97.92-12.71,230.76-1.55c0,0,29.34,31.35-6.72,124.35s-80.3,237-80.3,237H385S423.1,828.24,527.71,673Z"/><path class="cls-4" d="M758.54,779.41a2.72,2.72,0,0,1-2.59-3.55c17.92-55.63,10.23-84.62,4.06-97a2.72,2.72,0,0,1,4.86-2.43c6.55,13.07,14.77,43.59-3.74,101.06A2.72,2.72,0,0,1,758.54,779.41Z"/><path class="cls-4" d="M660.13,1015.48h0l-250-3.73a2.72,2.72,0,0,1,0-5.44h0l250,3.73A2.72,2.72,0,0,1,660.13,1015.48Z"/><path class="cls-2" d="M643.42,730.14c2.5,1.29,4.84,2.41,6.84,3.49,6-13.92,17.53-30.69,17.53-30.69,5.51,12.6,6.37,28,5.87,34.93l1.48-.14c25.42-2.8,41.08-29.72,31.21-52.45-6-13.75-17.38-23.82-29.4-25.67-19.28-3-33.1,5.65-42.39,15.72C618.57,692.69,623.13,719.63,643.42,730.14Z"/><path class="cls-4" d="M673.66,740.59a2.72,2.72,0,0,1-2.71-2.92,83.26,83.26,0,0,0-3.81-28.81c-3.78,5.85-10.38,16.56-14.38,25.84A2.72,2.72,0,0,1,649,736c-1.12-.6-2.35-1.22-3.65-1.87-1-.51-2.06-1-3.15-1.6a36.67,36.67,0,0,1-19.39-26.4,38.17,38.17,0,0,1,9.78-32.66c12.38-13.44,27.87-19.17,44.8-16.57,12.78,2,25.14,12.67,31.48,27.27a39.53,39.53,0,0,1-2.36,35.89,40.78,40.78,0,0,1-31,20.35l-1.56.15h-0.22Zm-5.87-40.37H668a2.72,2.72,0,0,1,2.23,1.62c5.1,11.67,6.29,25.2,6.21,33a35.4,35.4,0,0,0,25.28-17.45,34.14,34.14,0,0,0,2.08-31c-5.61-12.93-16.34-22.38-27.32-24.06-15.27-2.34-28.72,2.66-40,14.88a32.78,32.78,0,0,0-8.42,28,31.28,31.28,0,0,0,16.54,22.51h0c1.06,0.55,2.09,1.07,3.08,1.56L649,729.9c6.22-13.35,16.15-27.84,16.59-28.49A2.72,2.72,0,0,1,667.79,700.23Z"/><path class="cls-2" d="M682.5,608.6l-10,23.8L653,676.07c9.25,15.58,24.28,19.56,41.29,15.77l6.59-19.53,10-29.58Z"/><path class="cls-4" d="M682.83,695.9c-13.92,0-24.9-6.25-32.14-18.45a2.72,2.72,0,0,1-.15-2.49L670,631.29l10-23.75a2.72,2.72,0,0,1,4.6-.68L713,641a2.72,2.72,0,0,1,.49,2.61l-16.58,49.1a2.72,2.72,0,0,1-2,1.78A55.58,55.58,0,0,1,682.83,695.9Zm-26.74-20c7.83,12.24,20,16.82,36.14,13.64l15.6-46.19-24.57-29.53L675,633.45Z"/><polygon class="cls-2" points="718.39 1175.76 721.84 1255.62 753.22 1255.62 759.32 1175.76 718.39 1175.76"/><path class="cls-4" d="M753.22,1258.34H721.84a2.72,2.72,0,0,1-2.72-2.6l-3.44-79.86a2.72,2.72,0,0,1,2.72-2.84h40.92A2.72,2.72,0,0,1,762,1176l-6.09,79.86A2.72,2.72,0,0,1,753.22,1258.34Zm-28.78-5.44H750.7l5.68-74.42H721.23Z"/><path class="cls-2" d="M699.33,1331.9c-1,11.36-1.4,18.81-1.4,18.81H852.68c10.59-56.42-41.05-47.41-41.05-47.41a51.05,51.05,0,0,0-13.77,28.61H699.33Z"/><path class="cls-4" d="M852.68,1353.42H697.93a2.72,2.72,0,0,1-2.71-2.88c0-.08.45-7.62,1.41-18.88a2.72,2.72,0,0,1,2.71-2.49h96.16a54,54,0,0,1,14.19-27.79,2.72,2.72,0,0,1,1.48-.78c0.94-.16,23.12-3.85,36.37,9.57,8.65,8.77,11.29,22.57,7.82,41A2.72,2.72,0,0,1,852.68,1353.42ZM700.83,1348H850.4c2.52-15.45.26-26.87-6.72-34-9.91-10.06-26.78-8.66-30.74-8.17a48.86,48.86,0,0,0-12.38,26.27,2.72,2.72,0,0,1-2.71,2.49h-96C701.35,1340.53,701,1345.2,700.83,1348Z"/><path class="cls-1" d="M761.57,1245H712.3c-7,25.78-11,64.16-13,86.87h98.52a51.05,51.05,0,0,1,13.77-28.61C779.58,1280.25,761.57,1245,761.57,1245Z"/><path class="cls-4" d="M792.29,1317.73a2.7,2.7,0,0,1-1.39-.38c-33.68-20-55.56-64.23-56.47-66.1a2.72,2.72,0,0,1,4.88-2.39c0.22,0.44,22.1,44.61,54.37,63.82A2.72,2.72,0,0,1,792.29,1317.73Z"/><ellipse class="cls-2" cx="725.84" cy="1294.15" rx="12.02" ry="20.86"/><path class="cls-4" d="M725.84,1317.73c-8.26,0-14.74-10.36-14.74-23.58s6.47-23.58,14.74-23.58,14.74,10.36,14.74,23.58S734.11,1317.73,725.84,1317.73Zm0-41.72c-4.4,0-9.3,7.45-9.3,18.14s4.9,18.14,9.3,18.14,9.3-7.45,9.3-18.14S730.24,1276,725.84,1276Z"/><path class="cls-1" d="M813.74,998.66c-0.14,1.89-.3,3.84-0.46,5.84-5.52,68.36-19.4,199.47-19.4,199.47H709.65l-7.15-119.19-205.8,116.8,38.4-168.8S729.52,920.3,751.77,921.89c1.52,0.11,3.12.29,4.79,0.56s3.54,0.62,5.39,1c22.57,5.18,52.72,21.68,53.52,42.89C815.64,971.13,815,982.84,813.74,998.66Z"/><path class="cls-2" d="M813.74,998.66c-19.88,3.82-41.82-11.88-50.61-37.15-4.63-13.33-4.75-26.85-1.18-38,22.57,5.18,52.72,21.68,53.52,42.89C815.64,971.13,815,982.84,813.74,998.66Z"/><path class="cls-4" d="M742.76,1174.38a2.72,2.72,0,0,1-2.71-2.56L731.27,1017l-184.92,88.8a2.72,2.72,0,1,1-2.35-4.9l188.58-90.56a2.72,2.72,0,0,1,3.89,2.3l9,158.9a2.72,2.72,0,0,1-2.56,2.87h-0.16Z"/><path class="cls-4" d="M784.61,1188.41H721.84a2.72,2.72,0,0,1,0-5.44h62.77A2.72,2.72,0,0,1,784.61,1188.41Z"/><path class="cls-4" d="M707,1071.61a2.72,2.72,0,0,1-2.45-3.89l36.86-77.34a2.72,2.72,0,0,1,4.91,2.34l-36.86,77.34A2.72,2.72,0,0,1,707,1071.61Z"/><path class="cls-1" d="M386,1339.45c-13,.48-91.38,2.78-94-8.61S304.1,1208.28,329,1206.75a37.14,37.14,0,0,1,12.4,1.2,30.84,30.84,0,0,1,19.34,15.68l-2.34,62.18C392.35,1287.66,399,1339,386,1339.45Z"/><path class="cls-2" d="M386,1339.45c-13,.48-91.38,2.78-94-8.61S304.1,1208.28,329,1206.75a37.14,37.14,0,0,1,12.4,1.2c-34.74,24.51-30.14,106.47-30.14,106.47,12.71-26.22,47.14-28.61,47.14-28.61C392.35,1287.66,399,1339,386,1339.45Z"/><path class="cls-4" d="M356.95,1342.68c-7,0-14.52-.1-21.94-0.37-38.36-1.4-44.62-6.27-45.69-10.85-2.58-11.12,8.37-93.92,27.23-119.21,3.86-5.18,8-7.94,12.34-8.21a39.83,39.83,0,0,1,13.3,1.3,2.72,2.72,0,0,1,.83,4.84c-26.41,18.64-29.16,73.29-29.17,95,15.38-19.85,43.11-22,44.42-22.1h0.34c25,1.37,36.46,27.31,36.31,44.42-0.08,9-3.37,14.45-8.81,14.65h0C383,1342.28,371.23,1342.68,356.95,1342.68Zm-25.26-133.29q-1.22,0-2.48.08c-2.65.16-5.45,2.19-8.31,6-18.44,24.74-28.28,106.16-26.29,114.73,0.06,0.21,2,5.26,40.84,6.66,22.36,0.8,45.94,0,50.44-.16h0c2.06-.08,3.53-3.89,3.58-9.26,0.11-12.94-8.87-37.59-31-38.93-2.46.22-33.29,3.47-44.73,27.07a2.72,2.72,0,0,1-5.16-1c-0.18-3.25-3.9-76.48,26.6-105Q333.48,1209.39,331.69,1209.39Z"/><path class="cls-1" d="M556.08,1032.78c-9.77,32.17-29.83,97.41-48.52,152.91-17.13,50.85-38.52,101.53-62.51,130.13-12.36,14.75-25.42,23.62-38.93,23.62-12.78,0-24.54-4.69-34.6-11.05-21.22-13.4-34.92-34.24-34.92-34.24-18.28-50.06,17.08-72.31,17.08-72.31l12.71,3.18L399,1032.78h157Z"/><path class="cls-4" d="M335.8,1294.62a2.72,2.72,0,0,1-2.57-1.85c-8.8-26-3.23-44.49,3-55.42a53.26,53.26,0,0,1,16-17.8,2.72,2.72,0,0,1,2.9,4.6c-1.32.84-32.25,21.13-16.75,66.88A2.72,2.72,0,0,1,335.8,1294.62Z"/><path class="cls-4" d="M508.87,1184.52a2.72,2.72,0,0,1-2.58-3.58c17.07-50.94,35.23-109.71,44.53-140.21a2.72,2.72,0,1,1,5.2,1.59c-9.31,30.53-27.48,89.35-44.57,140.36A2.72,2.72,0,0,1,508.87,1184.52Z"/><path class="cls-2" d="M445.06,1315.82c-12.36,14.75-25.42,23.62-38.93,23.62-12.78,0-24.54-4.69-34.6-11.05,2.75-13.71,15.43-25.57,32.38-28.72C421.32,1296.44,437.85,1303.4,445.06,1315.82Z"/><path class="cls-4" d="M349.31,1294.69a2.72,2.72,0,0,1-2.64-2.08c-8.54-35.59,8.86-59.46,9.6-60.46a2.72,2.72,0,0,1,4.36,3.25c-0.22.29-16.59,23-8.68,55.95A2.72,2.72,0,0,1,349.31,1294.69Z"/><path class="cls-4" d="M374.14,1271a2.72,2.72,0,0,1-.95-0.17l-17.68-6.56a2.72,2.72,0,1,1,1.89-5.1l14.64,5.43,41.74-228.78a2.72,2.72,0,1,1,5.35,1l-42.32,232A2.72,2.72,0,0,1,374.14,1271Z"/><path class="cls-4" d="M410.09,1074a2.72,2.72,0,0,1-.52-5.39l11.07-2.16a19.76,19.76,0,0,0,15.57-15.32l3.24-15.31a2.72,2.72,0,0,1,5.32,1.13l-3.24,15.31a25.18,25.18,0,0,1-19.85,19.53l-11.07,2.16A2.74,2.74,0,0,1,410.09,1074Z"/><path class="cls-2" d="M762.21,633.18c-2.67,23.95-9.93,52.55-38.65,47.78-34.14-5.67-56-30.08-56-62.63s15.23-50.74,54.16-46.6a59.79,59.79,0,0,1,9.8,1.85c22.36,6.28,33.44,25,31.81,46.77C763.06,624.3,762.72,628.66,762.21,633.18Z"/><path class="cls-4" d="M729.61,684.2a39.68,39.68,0,0,1-6.5-.56c-13.94-2.31-26.4-7.83-36-16a2.72,2.72,0,1,1,3.5-4.16C699.47,671,711,676.13,724,678.28c7.87,1.31,14.22,0,19.41-3.88,11.22-8.49,14.56-27.76,16.1-41.52,0.51-4.49.85-8.74,1.14-12.71,1.61-21.49-9.83-38.33-29.84-44a2.72,2.72,0,0,1,1.47-5.23c22.65,6.36,35.6,25.36,33.79,49.59-0.29,3.85-.64,8.34-1.16,12.92-1.65,14.75-5.33,35.49-18.22,45.25A27.57,27.57,0,0,1,729.61,684.2Z"/><path class="cls-4" d="M657.35,624.35a100,100,0,0,0,10.92,13.49l17.24,1.25,3.81-12.17s11-.37,13.29-7.73a4.28,4.28,0,0,0,.15-0.52c0.6-2.41,3-13.18,1.5-30,0,0,26.19,11.89,40.49,13.56,5.14,0.6,11.18-1.32,16.81-4,11.27-5.42,21.26-23.58,19.43-36l0-.24c-2.89-18.13-12.45-5.69-12.45-5.69s-2.54-14.6-11.66-15.75-15.07,12.26-15.07,12.26a143.77,143.77,0,0,0-53.44-2.8c-35.35,5-26.82,29.42-26.82,29.42S635.47,587.54,657.35,624.35Z"/><path class="cls-2" d="M681.78,637.19c1.62-13.58-7.8-26.31-21.37-28a22.78,22.78,0,0,0-8.61.52c-16.89,4.37-12.88,43.62,28.35,41.07Z"/><path class="cls-4" d="M676.45,653.6c-22.31,0-34.34-12.54-36.41-25.58-1.6-10.07,3.06-18.88,11.08-21a25.51,25.51,0,0,1,9.63-.59c14.9,1.87,25.55,15.8,23.73,31a2.72,2.72,0,0,1-5.4-.65c1.47-12.28-7.06-23.49-19-25a20.11,20.11,0,0,0-7.59.46c-5.25,1.36-8.22,7.6-7.07,14.84,1.67,10.52,11.72,22.3,34.58,20.88a2.72,2.72,0,0,1,.34,5.43Q678.34,653.6,676.45,653.6Z"/><path class="cls-3" d="M478.43,788.14a577.29,577.29,0,0,1-90.2-43.65c-19.94-12-32.7-21-32.7-21-1.8-11.63-3.09-23.38-4-35-5-66.44,3.44-127.14,3.44-127.14,30.19-18,51.91,5.3,51.91,5.3,1.06,26,18,88.46,18,88.46L527.71,673C614.61,689.73,558.42,818.33,478.43,788.14Z"/><circle class="cls-2" cx="365.73" cy="564.86" r="3.71"/><path class="cls-4" d="M365.73,571.28a6.43,6.43,0,1,1,6.43-6.43A6.43,6.43,0,0,1,365.73,571.28Zm0-7.42a1,1,0,1,0,1,1A1,1,0,0,0,365.73,563.87Z"/><path class="cls-4" d="M403.75,583.34a2.71,2.71,0,0,1-1.27-.32c-25.83-13.66-42.35-2.27-43-1.78a2.72,2.72,0,0,1-3.18-4.41c0.79-.58,19.81-13.93,48.77,1.39A2.72,2.72,0,0,1,403.75,583.34Z"/><path class="cls-4" d="M502.56,795.45a70.62,70.62,0,0,1-25.09-4.77,2.72,2.72,0,1,1,1.92-5.09c38.52,14.54,72.29-9.9,84.51-40.29,9.53-23.7,6.23-53.12-22.61-65.44a2.72,2.72,0,1,1,2.14-5c32.22,13.76,36,46.32,25.52,72.47-6.79,16.88-19.41,31.38-34.62,39.79A65.52,65.52,0,0,1,502.56,795.45Z"/><path class="cls-4" d="M388.64,697.89a2.72,2.72,0,0,1-2-4.56l32.31-35a2.72,2.72,0,1,1,4,3.69l-32.31,35A2.71,2.71,0,0,1,388.64,697.89Z"/><path class="cls-2" d="M391,729.34a42.07,42.07,0,0,1-2.8,15.14c-19.94-12-32.7-21-32.7-21-1.8-11.63-3.09-23.38-4-35h0.26C373.47,688.55,391,706.81,391,729.34Z"/></svg>