<?xml version="1.0" encoding="utf-8"?>
<!-- Generator: Adobe Illustrator 25.2.0, SVG Export Plug-In . SVG Version: 6.00 Build 0)  -->
<svg version="1.1" xmlns="http://www.w3.org/2000/svg" xmlns:xlink="http://www.w3.org/1999/xlink" x="0px" y="0px"
	 viewBox="0 0 2950 2500" style="enable-background:new 0 0 2950 2500;" xml:space="preserve">
<style type="text/css">
	.st0{opacity:0.15;}
	.st1{fill:#609176;}
	.st2{fill:#87BFC1;}
	.st3{fill:#FFFFFF;}
	.st4{fill:#262424;}
	.st5{fill:#DE9244;}
	.st6{fill:#88C0C2;}
	.st7{fill:none;}
</style>
<g id="Layer_1">
	<g id="Layer_1_1_">
		<g class="st0">
			<path class="st1" d="M1839.1,2135.2c-124.6,0-213-30.2-306.7-62.1c-115.3-39.4-246-83.9-473.1-83.9c-8.4,0-16.9,0.1-25.5,0.2
				c-64.9,0.9-116,5-161,8.6c-35.3,2.8-65.8,5.2-93.5,5.2c-54.1,0-93.6-9.8-136.2-33.6c-42.6-23.8-79.5-57.5-109.9-99.8
				C506,1832,484,1787,467.8,1736.2c-27.2-85.2-37.5-186.8-28.1-278.4c8.7-85.7,36-169.3,80.9-248.3c28.9-50.8,64.7-99,106.3-143.4
				l0.1-0.1v-0.1c63.4-184.7,138.6-324.6,223.5-416c34.9-37.7,72.2-67.8,110.8-89.5c32.2-18.1,66.3-30.9,101.1-37.8
				c20.2-4.1,40.4-6.2,59.9-6.2c90,0,163.2,42.4,248.1,91.4c102.2,59.1,218,126,398,141.9c24.6,2.2,49.6,3.3,74.2,3.3
				c185.9,0,335.5-61.9,455.7-111.7c81.6-33.8,152.1-62.9,211.4-62.9c32.9,0,60.7,8.9,85.4,27.3c64.8,48.2,83.7,144.5,88.3,216.9
				c5.1,80.2-4.6,174.7-26.1,252.7c-11.3,41.2-24.3,70.6-35.6,96.5c-18.5,41.9-33.1,75-32.3,135.7c0.9,68.6,20.7,113.4,39.8,156.7
				c18.5,42,36,81.6,33.6,138.5c-4.6,107.3-77.2,185.6-130.1,242.9c-219.1,236.5-556.5,279.8-594.4,284
				C1903.6,2133.3,1870.4,2135.2,1839.1,2135.2z"/>
			<path d="M1122.3,517c89.7,0,163,42.4,247.7,91.2c102.3,59.1,218,126.1,398.2,141.9c24.6,2.2,49.7,3.3,74.2,3.3
				c186,0,335.7-61.9,455.9-111.7c81.5-33.8,152-62.9,211.2-62.9c32.6,0,60.5,8.8,85,27.2c27.2,20.2,48.5,50.7,63.5,90.6
				c13.2,35.2,21.5,77.5,24.5,125.8c2.7,42.4,1.3,87.8-4.1,134.9c-4.8,41.6-12.3,82.2-22.1,117.6c-11.3,41.1-24.3,70.5-35.6,96.4
				c-18.5,41.9-33.1,75.1-32.3,135.9c0.9,68.7,20.7,113.5,39.8,157c18.5,41.9,36,81.5,33.4,138.3c-2.1,47.5-17.3,93.1-46.4,139.4
				c-25.2,39.9-56.2,73.5-83.6,103c-50.4,54.3-111.1,102.7-180.5,143.8c-56.4,33.4-119,62.2-185.7,85.6
				c-116.4,40.7-210.1,52.5-227.7,54.4c-34.4,3.8-67.6,5.7-98.9,5.7c-56.9,0-109-6-164.2-18.8c-49.1-11.5-94.4-26.9-142.3-43.3
				c-115.3-39.4-246.1-83.9-473.2-83.9c-8.4,0-16.9,0.1-25.5,0.2c-64.9,0.9-116,5-161.1,8.6c-35.3,2.8-65.8,5.2-93.5,5.2
				c-54,0-93.5-9.8-135.9-33.6c-42.5-23.8-79.4-57.3-109.8-99.7c-27.2-37.8-49.1-82.8-65.2-133.4c-27.2-85.2-37.4-186.6-28.1-278.2
				c8.7-85.7,36-169.1,80.8-248.1c28.8-50.8,64.5-99,106.2-143.4l0.2-0.2l0.1-0.2c33.4-97.2,70.5-182.6,109.8-254.1
				c35.4-64,73.6-118.3,113.5-161.5c34.9-37.7,72.2-67.8,110.5-89.4c32.2-18.1,66.1-30.8,101-37.8
				C1082.7,519.1,1102.8,517,1122.3,517 M1122.3,515.9c-19.2,0-39.1,2-60,6.2c-125.7,25.2-294.8,133.6-435.8,543.4
				c-54.2,57.6-167.2,194.5-187.4,392c-16.4,160.7,23.5,411.5,203.6,512.4c46.7,26.1,87.5,33.7,136.5,33.7
				c62.2,0,137.6-12.2,254.6-13.8c8.6-0.1,17.1-0.2,25.5-0.2c412.9,0,502.8,146,779.8,146c30.5,0,63.3-1.7,99-5.7
				c34.8-3.8,374.9-46.7,594.7-284.2c54.1-58.4,125.7-135.7,130.4-243.2c5-115.3-71.5-159.7-73.4-295.3
				c-1.3-98.8,38.7-125.4,67.9-232.1c36.7-134,53.8-383.8-62.5-470.3c-26-19.4-54.4-27.4-85.8-27.4
				c-146.2,0-354.2,174.6-667.1,174.6c-24,0-48.8-1-74.2-3.3C1437.6,720,1319.8,515.9,1122.3,515.9L1122.3,515.9z"/>
		</g>
	</g>
</g>
<g id="object">
	<path class="st2" d="M1498.8,463.1h650.3c51.5,0,93.4,38.3,93.4,85.3v1276.5c0,47.1-41.8,85.3-93.4,85.3h-650.3
		c-51.6,0-93.4-38.3-93.4-85.3V548.4C1405.6,501.3,1447.3,463.1,1498.8,463.1z"/>
	<path class="st3" d="M2180.6,548.4V1825c0,15.8-14.2,28.7-31.4,28.7h-650.3c-17.3,0-31.4-12.9-31.4-28.7V548.4
		c0-15.8,14-28.7,31.4-28.7l0,0h191c13.5,0,24.5,9.9,24.5,22.4l0,0l0,0c0,12.4,10.9,22.4,24.5,22.4l0,0h170.8
		c13.5,0,24.5-9.9,24.5-22.4l0,0l0,0c0-12.4,10.9-22.4,24.5-22.4l0,0h191C2166.6,519.7,2180.6,532.5,2180.6,548.4
		C2180.6,548.3,2180.6,548.4,2180.6,548.4z"/>
	<path class="st3" d="M2180.5,549.7v1276.5c0,15.8-14.2,28.7-31.4,28.7h-650.3c-17.3,0-31.4-12.9-31.4-28.7V549.7
		c0-15.8,14-28.7,31.4-28.7l0,0h191c13.5,0,24.5,9.9,24.5,22.4l0,0l0,0c0,12.4,10.9,22.4,24.5,22.4l0,0h170.8
		c13.5,0,24.5-9.9,24.5-22.4l0,0l0,0c0-12.4,10.9-22.4,24.5-22.4l0,0h191C2166.5,521,2180.5,533.7,2180.5,549.7
		C2180.5,549.5,2180.5,549.7,2180.5,549.7z"/>
	<path class="st4" d="M2149.2,1858.2h-650.3c-19.4,0-35.1-14.4-35.1-32.2V549.7c0-17.7,15.7-32.1,35.1-32.1h191
		c15.6,0,28.2,11.5,28.2,25.7c0,10.5,9.3,18.9,20.7,18.9h170.8c11.4,0,20.7-8.5,20.7-18.9c0-14.2,12.6-25.7,28.2-25.7h191
		c19.4,0,35.1,14.4,35.1,32.1v1276.5C2184.3,1843.8,2168.5,1858.2,2149.2,1858.2z M1498.9,524.4c-15.2,0-27.6,11.2-27.6,25.3v1276.5
		c0,13.9,12.4,25.3,27.6,25.3h650.3c15.2,0,27.6-11.2,27.6-25.3V549.7c0-13.9-12.4-25.3-27.6-25.3h-191c-11.4,0-20.7,8.5-20.7,18.9
		c0,14.2-12.6,25.7-28.2,25.7h-170.8c-15.6,0-28.2-11.5-28.2-25.7c0-10.5-9.3-18.9-20.7-18.9L1498.9,524.4L1498.9,524.4z"/>
	<rect x="2091.9" y="481.1" class="st3" width="150.6" height="125.8"/>
	<path class="st5" d="M2306.5,426.8c-53.7,0-94.9-15.3-129.7-49.2c-34.8,33.8-76,49.2-129.7,49.2c0,88.1-18.2,214.4,129.7,265.7
		C2324.7,641.2,2306.5,515,2306.5,426.8z M2166.1,581.9l-43.2-43.2l19.3-19.3l23.9,23.9l45.4-45.4l19.3,19.3L2166.1,581.9z"/>
	<path class="st4" d="M2281.2,1997.1H1049.7c-1.7,0-3.1-1.4-3.1-3.1c0-1.7,1.4-3.1,3.1-3.1h1231.4c1.7,0,3.1,1.4,3.1,3.1
		C2284.3,1995.7,2282.9,1997.1,2281.2,1997.1C2281.2,1997.1,2281.2,1997.1,2281.2,1997.1z"/>
	<path class="st4" d="M1895.4,2058.1h-459.8c-1.7,0-3.1-1.4-3.1-3.1s1.4-3.1,3.1-3.1c0,0,0,0,0,0h459.8c1.7,0,3.1,1.4,3.1,3.1
		C1898.5,2056.7,1897.1,2058.1,1895.4,2058.1z"/>
	<path class="st4" d="M1393.4,2058.1h-174.1c-1.7,0-3.1-1.4-3.1-3.1s1.4-3.1,3.1-3.1c0,0,0,0,0,0h174.1c1.7,0,3.1,1.4,3.1,3.1
		C1396.5,2056.7,1395.1,2058.1,1393.4,2058.1C1393.4,2058.1,1393.4,2058.1,1393.4,2058.1z"/>
	<path class="st4" d="M2082.8,2058.1h-42.7c-1.7,0-3.1-1.4-3.1-3.1c0-1.7,1.4-3.1,3.1-3.1c0,0,0,0,0,0h42.7c1.7,0,3.1,1.4,3.1,3.1
		C2085.9,2056.7,2084.5,2058.1,2082.8,2058.1z"/>
	<path class="st6" d="M1663.3,1017.6l179.9-179.9c3.7-3.7,9.6-3.7,13.3,0l103.7,103.7c3.7,3.7,3.7,9.6,0,13.3l-179.9,179.9
		c-3.7,3.7-9.6,3.7-13.3,0l-103.7-103.7C1659.6,1027.2,1659.6,1021.3,1663.3,1017.6z"/>
	
		<rect x="1652" y="945.2" transform="matrix(0.7071 -0.7071 0.7071 0.7071 -157.0771 1546.7397)" class="st5" width="273.1" height="35.6"/>
	<path class="st3" d="M1763.4,1092.6l26.9-26.9c2.8-2.8,7.3-2.8,10.1,0v0c2.8,2.8,2.8,7.3,0,10.1l-26.9,26.9
		c-2.8,2.8-7.3,2.8-10.1,0l0,0C1760.6,1100,1760.6,1095.4,1763.4,1092.6z"/>
	<path class="st3" d="M1807.4,1048.5l11.3-11.3c2.8-2.8,7.3-2.8,10.1,0l0,0c2.8,2.8,2.8,7.3,0,10.1l-11.3,11.3
		c-2.8,2.8-7.3,2.8-10.1,0h0C1804.6,1055.9,1804.6,1051.3,1807.4,1048.5z"/>
	<path class="st3" d="M1902.9,953l11.3-11.3c2.8-2.8,7.3-2.8,10.1,0l0,0c2.8,2.8,2.8,7.3,0,10.1l-11.3,11.3c-2.8,2.8-7.3,2.8-10.1,0
		l0,0C1900.1,960.4,1900.1,955.9,1902.9,953z"/>
	<path class="st5" d="M1734.9,775.1h153.6c1.3,0,2.3,1,2.3,2.3v9.3c0,1.3-1,2.3-2.3,2.3h-153.6c-1.3,0-2.3-1-2.3-2.3v-9.3
		C1732.6,776.1,1733.6,775.1,1734.9,775.1z"/>
	<circle class="st6" cx="1657.4" cy="743" r="46"/>
	<path class="st5" d="M1634.9,736h45c1.3,0,2.3,1,2.3,2.3v9.3c0,1.3-1,2.3-2.3,2.3h-45c-1.3,0-2.3-1-2.3-2.3v-9.3
		C1632.6,737.1,1633.6,736,1634.9,736z"/>
	<circle class="st6" cx="1966" cy="743" r="46"/>
	<path class="st5" d="M1990.7,742.9c0,3.8-3,6.9-6.8,6.9c0,0,0,0-0.1,0h-10.9v10.9c0,3.8-3.1,6.9-6.9,6.9s-6.9-3.1-6.9-6.9v-10.9
		h-10.9c-3.8,0-6.9-3.1-6.9-6.9c0-3.8,3.1-6.9,6.9-6.9c0,0,0,0,0,0h10.9v-10.9c0-3.8,3.1-6.9,6.9-6.9s6.9,3.1,6.9,6.9V736h10.9
		C1987.6,736,1990.7,739.1,1990.7,742.9C1990.7,742.9,1990.7,742.9,1990.7,742.9z"/>
	<circle class="st6" cx="1706.6" cy="1561.8" r="37.6"/>
	<circle class="st3" cx="1706.6" cy="1561.8" r="15.1"/>
	
		<ellipse transform="matrix(0.1602 -0.9871 0.9871 0.1602 68.1026 3203.6382)" class="st6" cx="1916.8" cy="1561.8" rx="37.6" ry="37.6"/>
	<circle class="st3" cx="1916.8" cy="1561.8" r="15.1"/>
	<path class="st5" d="M2058.8,1108.6h-38.3c-5.7,0-10.6,3.9-12,9.4l-12.3,49.5h-378.7h-0.2c-0.8,0.1-1.7,0.2-2.5,0.3h-0.2
		c-0.3,0.1-0.5,0.2-0.8,0.3c-0.5,0.1-0.9,0.3-1.3,0.5c-0.4,0.2-0.7,0.4-1,0.6c-0.3,0.2-0.7,0.4-1,0.6c-0.3,0.2-0.6,0.5-0.9,0.8
		c-0.3,0.3-0.6,0.5-0.8,0.8c-0.3,0.3-0.5,0.6-0.8,0.9c-0.2,0.3-0.5,0.6-0.7,0.9s-0.4,0.7-0.6,1c-0.2,0.4-0.4,0.7-0.5,1.1
		c-0.1,0.4-0.3,0.8-0.4,1.2c-0.1,0.4-0.2,0.7-0.3,1.1c-0.1,0.4-0.1,0.9-0.1,1.3c0,0.3-0.1,0.6-0.1,0.8c0,0.1,0,0.1,0,0.2
		c0.1,0.8,0.2,1.7,0.3,2.5c0,0.1,0,0.1,0,0.2l38.5,155.2c0.1,0.3,0.2,0.5,0.3,0.8c0.1,0.5,0.3,0.9,0.5,1.3c0.2,0.4,0.4,0.7,0.6,1
		s0.4,0.7,0.6,1c0.2,0.3,0.5,0.6,0.8,0.9c0.3,0.3,0.5,0.6,0.8,0.8c0.3,0.3,0.6,0.5,0.9,0.8c0.3,0.2,0.6,0.5,1,0.7
		c0.3,0.2,0.7,0.4,1,0.6c0.4,0.2,0.7,0.4,1.1,0.5c0.4,0.1,0.8,0.2,1.2,0.4s0.7,0.2,1.1,0.3c0.4,0.1,0.9,0.1,1.3,0.1
		c0.3,0,0.6,0.1,0.8,0.1h295.7l-25,101h-239.5c-6.8,0-12.3,5.5-12.3,12.3c0,6.8,5.5,12.3,12.3,12.3h249.2c5.7,0,10.6-3.9,12-9.4
		l81.9-330.2h28.7c6.8,0,12.3-5.5,12.4-12.3C2071.2,1114.2,2065.6,1108.6,2058.8,1108.6L2058.8,1108.6z M1824,1322.6v-130.4h71.4
		l-24.6,130.4H1824z M1752.7,1322.6l-24.6-130.4h71.4v130.5L1752.7,1322.6L1752.7,1322.6z M1665.7,1322.6l-32.3-130.5h69.6
		l24.6,130.5H1665.7L1665.7,1322.6z M1895.9,1322.6l24.6-130.5h69.6l-32.3,130.5H1895.9L1895.9,1322.6z"/>
	<path class="st5" d="M1649.9,1668.6h323.6c29.4,0,53.2,23.8,53.2,53.2v0c0,29.4-23.8,53.2-53.2,53.2h-323.6
		c-29.4,0-53.2-23.8-53.2-53.2v0C1596.7,1692.4,1620.5,1668.6,1649.9,1668.6z"/>
	<path class="st3" d="M1636.9,1708h270.2c7.6,0,13.8,6.2,13.8,13.8l0,0c0,7.6-6.2,13.8-13.8,13.8h-270.2c-7.6,0-13.8-6.2-13.8-13.8
		l0,0C1623.1,1714.2,1629.3,1708,1636.9,1708z"/>
	<path class="st3" d="M1958.6,1708h27.8c7.6,0,13.8,6.2,13.8,13.8l0,0c0,7.6-6.2,13.8-13.8,13.8h-27.8c-7.6,0-13.8-6.2-13.8-13.8
		l0,0C1944.8,1714.2,1951,1708,1958.6,1708z"/>
	<polygon class="st3" points="1315.9,1605.9 1372.6,1650.1 1354.2,1683.3 1293.4,1649.7 	"/>
	<path class="st4" d="M1354.2,1686.4c-0.5,0-1-0.1-1.5-0.4l-60.8-33.6c-1.4-0.8-2-2.6-1.3-4l22.5-43.8c0.4-0.8,1.2-1.4,2.1-1.6
		c0.9-0.2,1.8,0,2.6,0.6l56.8,44.2c1.2,0.9,1.5,2.6,0.8,3.9l-18.5,33.2C1356.3,1685.8,1355.3,1686.4,1354.2,1686.4z M1297.5,1648.5
		l55.5,30.6l15.7-28.3l-51.8-40.3L1297.5,1648.5z"/>
	<path class="st6" d="M1455.1,1646v187.9c-9.9,1.1-20-0.2-29.3-3.9c-8.8-3.6-16.3-9.7-21.5-17.6c-4.5-6.7-10.9-17.7-18-30.4
		c-20.8-37.7-47.2-90.2-47.2-90.2l26.2-52.4c20.2-0.8,40.5-0.1,60.6,2.1C1435.7,1642.4,1445.5,1643.9,1455.1,1646z"/>
	<ellipse class="st3" cx="1390.2" cy="1673.2" rx="23.9" ry="17.2"/>
	<path class="st3" d="M1455.1,1646v187.9c-9.9,1.1-20-0.2-29.3-3.9v-188.6C1435.7,1642.4,1445.5,1643.9,1455.1,1646z"/>
	<path class="st4" d="M1448.5,1837.3c-8.2,0-16.3-1.5-23.8-4.6c-1.1-0.5-1.9-1.6-1.9-2.8v-188.6c0-1.7,1.4-3.1,3.1-3.1
		c0.1,0,0.2,0,0.3,0c9.9,1,19.8,2.6,29.6,4.7c1.4,0.3,2.4,1.6,2.4,3v187.9c0,1.5-1.1,2.8-2.6,3
		C1453.3,1837.2,1450.9,1837.4,1448.5,1837.3z M1428.9,1827.8c7.4,2.6,15.3,3.8,23.1,3.3v-182.6c-7.4-1.5-15.1-2.7-23.1-3.7V1827.8
		L1428.9,1827.8z"/>
	<path class="st3" d="M1425.9,1768.9l29.3-9.6v74.6c-9.9,1.1-20-0.2-29.3-3.9c-8.8-3.6-16.3-9.7-21.5-17.6
		c-4.5-6.7-10.9-17.7-18-30.4L1425.9,1768.9z"/>
	<path class="st4" d="M1448.5,1837.3c-8.2,0-16.3-1.5-23.8-4.6c-9.3-3.8-17.3-10.4-22.9-18.7c-4.1-6.2-10.2-16.5-18.1-30.7
		c-0.8-1.5-0.3-3.4,1.2-4.2c0.2-0.1,0.4-0.2,0.5-0.2l39.5-13l0,0l29.3-9.6c0.9-0.3,2-0.1,2.8,0.4c0.8,0.6,1.3,1.5,1.3,2.5v74.6
		c0,1.5-1.1,2.8-2.6,3C1453.3,1837.2,1450.9,1837.4,1448.5,1837.3z M1390.9,1783.6c6.9,12.4,12.3,21.4,16,26.9
		c4.9,7.4,12,13.1,20.2,16.5c7.9,3.2,16.5,4.6,25,4v-67.5L1390.9,1783.6z"/>
	<path class="st6" d="M1328,1607.3l-34.3,64.4c0,0-37.5-21.5-86-51.7c-56.5-35.3-128.3-82.4-173.1-121.4
		c-22.6-19.6-36.6-35.5-35.8-43.9c0.7-7.1,6.7-23.7,16.2-46.2c43.8-104.5,160.4-336.4,160.4-336.4c38.3-88.3,134.8-63,145.8-16.4
		c11,46.5-14.4,113.6-14.4,113.6l-8.4,14.2l-39.4,66.3l-112.4,189.2l143.7,133.6L1328,1607.3z"/>
	<path class="st4" d="M1328,1607.3l-34.3,64.4c0,0-37.5-21.5-86-51.7l82.7-47.5L1328,1607.3z"/>
	<path class="st4" d="M1298.5,1183.4l-39.4,66.3l16-98.6C1274.2,1166.7,1286.3,1177,1298.5,1183.4z"/>
	<path class="st3" d="M1034.6,1498.6c-22.6-19.6-36.6-35.5-35.8-43.9c0.7-7.1,6.7-23.7,16.2-46.2c13.7,4.9,26,18.4,31.4,36.4
		C1053.1,1466.4,1047.8,1488,1034.6,1498.6z"/>
	<path class="st4" d="M1290.3,1615.5c-0.7,0-1.4-0.2-1.9-0.7l-204.9-166.7c-1.1-0.9-1.5-2.5-0.8-3.7l144.8-296.7
		c0.8-1.5,2.7-2,4.2-1.2c1.3,0.8,1.9,2.4,1.3,3.9l-143.7,294.6l202.9,165.1c1.3,1.1,1.5,3,0.4,4.3
		C1292.1,1615.1,1291.2,1615.5,1290.3,1615.5z"/>
	<path class="st4" d="M1033.1,1458.4c-1.7,0-3.1-1.4-3.1-3.1c0-1.5,1.1-2.8,2.6-3l101.3-16.4c1.7-0.3,3.3,0.8,3.6,2.5
		c0.3,1.7-0.8,3.3-2.5,3.6c-0.1,0-0.1,0-0.2,0l-101.3,16.4C1033.5,1458.4,1033.3,1458.4,1033.1,1458.4z"/>
	<line class="st7" x1="1307.1" y1="1599.8" x2="1279.7" y2="1649.7"/>
	<path class="st4" d="M1279.7,1652.8c-1.7,0-3.1-1.4-3.1-3.1c0-0.5,0.1-1,0.4-1.5l27.4-50c0.7-1.6,2.5-2.2,4.1-1.5s2.2,2.5,1.5,4.1
		c-0.1,0.2-0.1,0.3-0.2,0.4l-27.4,50C1281.8,1652.2,1280.8,1652.8,1279.7,1652.8z"/>
	<polygon class="st3" points="1264.8,1808.5 1255.9,1889.3 1295,1904 1314.8,1808.5 	"/>
	<path class="st4" d="M1295,1907.1c-0.4,0-0.7-0.1-1.1-0.2l-39-14.7c-1.3-0.5-2.1-1.8-2-3.2l8.9-80.8c0.2-1.5,1.5-2.7,3.1-2.7h50
		c1.7,0,3.1,1.4,3.1,3.1c0,0.2,0,0.4-0.1,0.6l-19.8,95.4C1297.7,1906.1,1296.4,1907.1,1295,1907.1z M1259.3,1887.3l33.4,12.6
		l18.4-88.3h-43.5L1259.3,1887.3z"/>
	<path class="st4" d="M1300.4,1186.7c-0.5,0-0.9-0.1-1.3-0.3l-9.4-4.3c-10.8-5-17.7-15.7-17.7-27.6v-59.9c0-1.7,1.4-3.1,3.1-3.1
		c1.7,0,3.1,1.4,3.1,3.1v59.9c0,9.4,5.5,18,14.1,22l9.4,4.3c1.6,0.7,2.3,2.5,1.6,4.1C1302.7,1185.9,1301.6,1186.6,1300.4,1186.7z"/>
	<path class="st6" d="M1290.9,1082.3l1,139.6l-57.5,597.6l96.5,7.2c0,0,125.2-573,130.4-596.6c5.2-23.6,5.1-92.4,0-145.8
		C1456.2,1030.9,1290.9,964.2,1290.9,1082.3z"/>
	<path class="st4" d="M1251.8,1642h-0.4c-1.7-0.2-2.9-1.7-2.8-3.4c0,0,0,0,0,0l8.3-86.7c0.3-1.7,1.8-2.8,3.5-2.6
		c1.5,0.2,2.6,1.6,2.6,3.2l-8.3,86.7C1254.6,1640.8,1253.3,1642,1251.8,1642z"/>
	<path class="st4" d="M1461.3,1233.2c-1.7,0-3.1-1.4-3.1-3.1c0-0.2,0-0.4,0.1-0.6c5-23.2,5-92.2,0-144.9c-0.1-1.7,1.3-3.1,3-3.2
		c1.6-0.1,2.9,1.1,3.2,2.6c5.2,54.1,5.2,122.7,0,146.8C1464.1,1232.2,1462.8,1233.2,1461.3,1233.2z"/>
	<path class="st4" d="M1357.1,1709.9c-1.7,0-3.1-1.4-3.1-3.1c0-0.2,0-0.4,0.1-0.7l13.6-62.2c0.4-1.7,2-2.7,3.7-2.3
		c1.7,0.4,2.7,2,2.3,3.7l-13.6,62.2C1359.8,1708.9,1358.5,1709.9,1357.1,1709.9z"/>
	
		<ellipse transform="matrix(0.1761 -0.9844 0.9844 0.1761 -352.1123 2503.3828)" class="st3" cx="1319.4" cy="1462" rx="50.3" ry="38.3"/>
	<path class="st4" d="M1439.2,1203.4c-0.2,0-0.5,0-0.7-0.1l-12.5-2.8c-13.7-3.1-23.3-15.3-23.3-29.3v-45.8c0-1.7,1.4-3.1,3.1-3.1
		c1.7,0,3.1,1.4,3.1,3.1v45.8c0,11.1,7.7,20.8,18.5,23.3l12.5,2.9c1.6,0.5,2.6,2.2,2.1,3.8
		C1441.7,1202.4,1440.5,1203.3,1439.2,1203.4z"/>
	<path class="st4" d="M1322.7,1793.8c-0.2,0-0.4,0-0.6,0c-1.7-0.3-2.8-2-2.4-3.6l117-589.7v-81.3c0-1.7,1.4-3.1,3.1-3.1
		c1.7,0,3.1,1.4,3.1,3.1v81.6c0,0.2,0,0.4,0,0.6l-117.1,589.9C1325.5,1792.8,1324.2,1793.9,1322.7,1793.8z"/>
	<path class="st4" d="M1325.8,1809.9h-0.3l-79.4-6.9c-1.7-0.1-3-1.5-2.9-3.2c0.1-1.7,1.5-3,3.2-2.9c0.1,0,0.2,0,0.2,0l79.4,6.9
		c1.7,0.2,2.9,1.7,2.7,3.4C1328.5,1808.7,1327.3,1809.8,1325.8,1809.9z"/>
	<path class="st6" d="M1304.5,1895.1l-60-16.8c0,0-45.3,26.1-83,46.9c-12.7,7.1-23.7,13.5-30.4,18c-7.9,5.3-14,12.8-17.6,21.5
		c-3.7,9.3-5.1,19.3-3.9,29.3h194.3C1306.6,1956.1,1304.5,1895.1,1304.5,1895.1z"/>
	<ellipse class="st3" cx="1270.3" cy="1929.1" rx="17.2" ry="23.9"/>
	<path class="st3" d="M1113.5,1964.8c-3.7,9.3-5.1,19.3-3.9,29.3h194.3c0.7-8.9,1-19,1.3-29.3H1113.5z"/>
	<path class="st4" d="M1303.8,1997.1h-194.3c-1.5,0-2.8-1.1-3-2.6c-1.2-10.5,0.2-21.2,4.1-31c0.5-1.1,1.6-1.9,2.8-1.9h191.6
		c1.7,0,3.1,1.4,3.1,3.1c0,0,0,0,0,0.1c-0.2,11.4-0.7,21.3-1.3,29.4C1306.8,1995.9,1305.4,1997.1,1303.8,1997.1z M1112.4,1991H1301
		c0.4-6.7,0.8-14.4,1-23.1h-186.3C1113,1975.3,1111.9,1983.1,1112.4,1991L1112.4,1991z"/>
	<path class="st3" d="M1174.5,1964.8l9.5,29.3h-74.6c-1.1-9.9,0.2-20,3.9-29.3c3.6-8.8,9.7-16.3,17.6-21.5
		c6.7-4.5,17.7-10.9,30.4-18L1174.5,1964.8z"/>
	<path class="st4" d="M1184.1,1997.1h-74.6c-1.5,0-2.8-1.1-3-2.6c-1.2-10.5,0.2-21.2,4.1-31c3.8-9.3,10.4-17.3,18.7-22.9
		c6.2-4.1,16.5-10.2,30.7-18.1c1.5-0.8,3.4-0.3,4.2,1.2c0.1,0.2,0.2,0.3,0.2,0.5l13,39.5l0,0l9.6,29.3c0.5,1.6-0.3,3.4-2,3.9
		C1184.8,1997.1,1184.4,1997.1,1184.1,1997.1z M1112.3,1991h67.5l-20-61.2c-12.3,6.9-21.4,12.3-26.9,16c-7.4,4.9-13.1,12-16.5,20.2
		C1113.2,1973.9,1111.9,1982.5,1112.3,1991L1112.3,1991z"/>
	<path class="st5" d="M1222.9,892.3c-10.7,27.4-23.2,55-35,79.1c-21.2,43.7-39.9,76.1-39.9,76.1l15.5,109.7L1107,1186
		c-32.9-49.3-53.4-121.2-53.4-121.2c22.6-169.4,94.5-305,94.5-305C1203.6,722.9,1252.8,815.3,1222.9,892.3z"/>
	<path class="st4" d="M1187.9,971.4c-21.2,43.7-39.9,76.1-39.9,76.1l9.4-128.2L1187.9,971.4z"/>
	<path class="st4" d="M1085.8,1054.6c-1.7,0-3.1-1.4-3.1-3.1c0-0.9,0.4-1.8,1.2-2.4c0.8-0.6,19.8-15.1,55.2-4.6
		c1.6,0.4,2.6,2.1,2.2,3.8c-0.4,1.6-2.1,2.6-3.8,2.2c-0.1,0-0.1,0-0.2,0c-32.3-9.6-49.4,3.4-49.6,3.6
		C1087.2,1054.4,1086.5,1054.6,1085.8,1054.6z"/>
	<path class="st3" d="M1130.3,1112.7c-7.4,6.4,4.4,46.9,30.8,51C1187.5,1167.8,1149.1,1096.6,1130.3,1112.7z"/>
	<path class="st4" d="M1163.2,1167c-0.9,0-1.7-0.1-2.6-0.2c-17.2-2.7-29.4-19.8-33.8-35.6c-2.8-9.8-2.2-17.6,1.5-20.8
		c3.1-2.7,9.8-6,19.9,1.3c14.1,10.2,28.9,37.6,24,49.6C1170.8,1164.9,1167.1,1167.2,1163.2,1167z M1136.7,1113.5
		c-1.6,0-3.1,0.6-4.3,1.6l0,0c-1.2,1-1.9,6.3,0.4,14.4c3.9,13.9,14.4,28.9,28.9,31.2c3.9,0.6,4.6-1,4.9-1.7
		c3.2-7.7-8.5-32.6-21.9-42.2C1141.6,1114.5,1139,1113.5,1136.7,1113.5L1136.7,1113.5z M1130.3,1112.7L1130.3,1112.7z"/>
	<path class="st3" d="M1118.3,1132.6c-11,1.8-38.3,44.5-33.9,58.5c4.4,14,40.9,32.6,56.8,7.9
		C1162.8,1165.5,1135.5,1129.8,1118.3,1132.6z"/>
	<path class="st4" d="M1118.9,1214.1c-1.7,0-3.4-0.1-5-0.4c-14.4-1.9-29.2-11.9-32.3-21.8c-3.5-11,8.4-31.5,12.1-37.5
		c2.4-3.9,14.9-23.5,24.2-25l0,0c8.7-1.3,18.9,4.9,26.2,16c10.9,16.8,10.9,38.4-0.2,55.1C1138.6,1209.3,1129.1,1214.4,1118.9,1214.1
		z M1120.3,1135.5c-0.5,0-1,0-1.4,0.1l0,0c-3.4,0.5-11.5,8.5-20,22.2c-8.6,13.9-13.2,26.9-11.5,32.3c2.2,6.9,14.3,15.8,27.3,17.5
		c7.3,1,17.3,0,24-10.4c9.8-14.6,9.9-33.7,0.2-48.4C1133.6,1140.8,1126.2,1135.5,1120.3,1135.5L1120.3,1135.5z M1118.3,1132.6
		L1118.3,1132.6z"/>
	<path class="st5" d="M1474.7,1053.2l11.3,53.7c0,0-7.5,6.4-19.8,16.2c-22.8,18-62.1,47.3-101.4,68l-66.7-80.1l-75,61.6
		c0,0-45.2-47.2-68.8-94.5l25.7-45.2c0,0-33.9-110.9-31.8-273.1c0,0,102.2-64.6,165.3-72.9c63.1-8.3,183.3,52.9,183.3,52.9
		l-24.2,303.5L1474.7,1053.2z"/>
	<path class="st4" d="M1485.9,1106.9c0,0-7.5,6.4-19.8,16.2l-60.3-79.2l68.8,9.4L1485.9,1106.9z"/>
	<path class="st4" d="M1168.7,989.2c-1.5,0-2.7-1-3-2.5c-9.4-46.1-20.7-120.3-20.7-212.1c0-1.7,1.4-3.1,3.1-3.1c0,0,0,0,0,0l0,0
		c1.7,0,3.1,1.4,3.1,3.1c0,0,0,0,0,0c0,91.3,11.2,165.1,20.6,210.9c0.3,1.7-0.8,3.3-2.4,3.6C1169.1,989.2,1168.9,989.2,1168.7,989.2
		z"/>
	<path class="st4" d="M1297.3,1091.2c-1.7,0-3.1-1.4-3.1-3.1c0-179.1,11.7-330.1,11.8-331.6c0-1.7,1.5-3,3.2-3c1.7,0,3,1.5,3,3.2
		c0,0.1,0,0.2,0,0.3c-0.1,1.5-11.8,152.3-11.8,331.1C1300.4,1089.8,1299,1091.2,1297.3,1091.2z"/>
	<path class="st3" d="M1368.5,722.2c-7.5,19.1-23.1,33.8-42.5,40.3c-3.7-17.7-13.3-39.9-13.3-39.9c-9.6,14-14.3,32.2-15.4,40.5
		c-32.4-8-37-38.8-37-38.8c3.1-31.1,29.1-55.2,52-55.1C1363.1,669.5,1368.5,722.2,1368.5,722.2z"/>
	<path class="st4" d="M1297.3,766.1c-0.2,0-0.5,0-0.7-0.1c-34.1-8.4-39.2-41-39.3-41.4c0-0.3,0-0.5,0-0.8
		c3.4-34.2,31.6-57.9,54.9-57.9h0.2c52.8,0.3,59.1,55.2,59.2,55.8c0.1,0.5,0,1-0.2,1.5c-7.9,19.9-24.1,35.3-44.4,42.1
		c-1.6,0.6-3.4-0.3-3.9-1.9c0-0.1-0.1-0.3-0.1-0.4c-2.5-12-7.8-26.2-10.9-33.8c-5.9,10.6-9.9,22.2-11.8,34.2
		C1300.2,764.9,1298.9,766.1,1297.3,766.1z M1263.5,724.1c0.6,3.3,5.7,26.9,31.4,35c1.7-9.2,6.4-25.3,15.3-38.4
		c1-1.4,2.9-1.8,4.3-0.8c0.5,0.3,0.9,0.8,1.1,1.3c0.4,0.9,8.6,20,12.7,37c16.9-6.6,30.3-19.8,37.1-36.6c-0.9-6.4-8.4-49.2-53-49.5
		C1291.7,672.1,1266.6,694.3,1263.5,724.1z"/>
	<polygon class="st6" points="1330.9,1001.6 1271.9,836.8 1158.4,836.8 1217.4,1001.6 	"/>
	<polygon class="st3" points="1158.4,836.8 1174,821.3 1287.4,821.3 1271.9,836.8 	"/>
	<polygon class="st3" points="1330.9,1001.6 1346.5,986.1 1287.4,821.3 1271.9,836.8 	"/>
	<path class="st4" d="M1271.9,839.9h-103.9c-1.7,0-3.1-1.4-3.1-3.1c0-1.7,1.4-3.1,3.1-3.1h102.6l10.5-10.4c1.2-1.2,3.2-1.2,4.4,0
		c1.2,1.2,1.2,3.2,0,4.4l0,0l-11.3,11.3C1273.5,839.6,1272.7,839.9,1271.9,839.9z"/>
	<path class="st4" d="M1303.3,927.6c-1.3,0-2.5-0.8-2.9-2l-31.5-87.6c-0.6-1.6,0.1-3.4,1.7-4c1.6-0.6,3.4,0.1,4,1.7
		c0,0.1,0.1,0.1,0.1,0.2l31.4,87.6c0.6,1.6-0.3,3.4-1.9,3.9C1303.9,927.5,1303.6,927.6,1303.3,927.6z"/>
	<path class="st5" d="M1593.9,1031.7c-0.8,22.4-7.3,39.2-22.7,45.4c-21.3,8.5-41.4-3.3-59.6-24.5c-29.9-35-54.4-95.6-69.7-132.6
		c-24.6-59.6-39-115-22.1-155c18-42.6,77.1-25.2,77.1-25.2s24.1,30.3,45.7,89.9C1558.1,873,1596.1,972.1,1593.9,1031.7z"/>
	<path class="st4" d="M1511.5,1055.7c-0.9,0-1.8-0.4-2.3-1.1c-29.3-34.4-53.1-92-68.9-130.2l-1.3-3.3
		c-30.3-73.2-37.1-121.8-22.1-157.4c8.3-19.5,26.1-30.1,51.5-30.6c1.7,0,3.1,1.3,3.1,3c0,1.7-1.3,3.1-3,3.1c0,0,0,0,0,0
		c-23.1,0.4-38.6,9.4-45.9,26.8c-14.1,33.5-7.1,82,22.1,152.7l1.3,3.3c15.6,37.8,39.2,94.9,67.9,128.5c1.1,1.3,1,3.2-0.3,4.3
		C1513,1055.5,1512.3,1055.7,1511.5,1055.7z"/>
	<path class="st3" d="M1593.9,1031.7c-0.8,22.4-7.3,39.2-22.7,45.4c-21.3,8.5-41.4-3.3-59.6-24.5c5.3-25.5,30.3-42,55.8-36.7
		C1577.7,1018.1,1587.1,1023.7,1593.9,1031.7z"/>
	<path class="st5" d="M1571.2,1077.1c-15.6,8.6-33.8,11.7-52.9,10.8c-83.3-3.4-185.8-79.1-185.8-79.1l18.5-45.2
		c0,0,78.7-3.3,128.1-2.2c33.3,0.8,76.7,21,92.6,55.6C1579.5,1033.9,1580.7,1054.1,1571.2,1077.1z"/>
	<path class="st4" d="M1480.8,1085.3c-0.2,0-0.5,0-0.7-0.1c-73.4-18.2-148.7-73.4-149.4-74c-1.1-0.8-1.6-2.3-1-3.6l18.5-45.2
		c0.5-1.1,1.5-1.8,2.7-1.9c0.8,0,79.4-3.3,128.4-2.2c26.3,0.6,56,12.7,75.6,30.9c1.2,1.2,1.1,3.2-0.1,4.4c-1.1,1.1-2.9,1.1-4.1,0.2
		c-18.6-17.2-46.7-28.7-71.6-29.2c-44.4-1.1-113.5,1.6-126,2.1l-16.7,41.1c12.2,8.7,79.6,55.2,145.3,71.5c1.6,0.4,2.6,2.1,2.2,3.8
		C1483.3,1084.4,1482.1,1085.3,1480.8,1085.3z"/>
	<path class="st3" d="M1571.2,1077.1c-15.6,8.6-33.8,11.7-52.9,10.8c-14.2-21.9-8-51.1,13.8-65.3c11.7-7.6,26.3-9.7,39.7-5.6
		C1579.5,1033.9,1580.7,1054.1,1571.2,1077.1z"/>
	<path class="st4" d="M1372.7,1027.8c-1.7,0-3.1-1.4-3.1-3.1c0-0.9,0.4-1.7,1-2.3c21.7-19.1,9.6-51.2,9.4-51.5
		c-0.6-1.6,0.3-3.4,1.9-3.9c1.5-0.5,3.2,0.2,3.8,1.7c0.6,1.5,13.8,36.4-11.1,58.4C1374.2,1027.6,1373.5,1027.8,1372.7,1027.8z"/>
	<circle class="st3" cx="1359.9" cy="1008.3" r="6.7"/>
	<path class="st4" d="M1359.9,1018.1c-5.4,0-9.7-4.4-9.7-9.7c0-5.4,4.4-9.7,9.7-9.7s9.7,4.4,9.7,9.7l0,0
		C1369.6,1013.7,1365.3,1018.1,1359.9,1018.1z M1359.9,1004.7c-2,0-3.6,1.6-3.6,3.6s1.6,3.6,3.6,3.6s3.6-1.6,3.6-3.6v0
		C1363.5,1006.3,1361.9,1004.7,1359.9,1004.7z"/>
	<path class="st3" d="M1355.2,973.4c0,0-9.5-46.2-16.1-55.4c-5.4-7.7-54.2,0-70.8,2.8c-3.2,0.5-5.5,3.3-5.5,6.5l0,0
		c0,3.5,2.7,6.4,6.1,6.6l26.8,2.2l-22.9,5.5c-5.7,1.4-9.4,6.9-8.5,12.6c1.7,10.9,4.3,27.1,5.7,29.8c2.1,4.1,35.2,0,35.2,0
		s1.5,27.4,17.2,29.1C1338.1,1014.9,1358.3,1000.1,1355.2,973.4z"/>
	<path class="st4" d="M1324.9,1016.3c-1,0-1.9-0.1-2.9-0.2c-14.7-1.6-18.6-20.9-19.6-28.7c-32.3,3.7-34.4-0.5-35.2-2.1
		c-0.5-1-1.8-3.6-6-30.7c-1.1-7.4,3.5-14.4,10.8-16.2l4.3-1l-7.8-0.6c-5.3-0.4-9.3-5.1-8.9-10.5c0.4-4.4,3.7-8,8-8.7
		c44.4-7.6,69.3-8.1,73.9-1.5c6.7,9.4,15.6,51.8,16.6,56.5c0,0.1,0,0.2,0,0.3c1.5,13.1-2.2,24.9-10.5,33.3
		C1341.8,1012.4,1333.6,1016.1,1324.9,1016.3z M1305.3,980.9c1.6,0,3,1.3,3.1,2.9c0,0.2,1.7,24.8,14.4,26.2c7.1,0.8,15-2.3,20.7-8.1
		c6.9-6.9,10-16.9,8.7-28.1c-2.7-12.8-10.5-47-15.6-54.2c-2-2.7-21.8-3.8-67.8,4c-1.7,0.3-2.9,1.8-2.9,3.5c0,1.8,1.4,3.4,3.2,3.5
		l26.8,2.2c1.7,0.2,2.9,1.7,2.8,3.4c-0.1,1.3-1,2.4-2.3,2.7l-22.9,5.5c-4.1,1-6.8,5-6.2,9.2c3.2,21,4.7,26.8,5.2,28.4
		c3.5,1.3,19.1,0.4,32.3-1.2L1305.3,980.9z"/>
	<path class="st3" d="M1336.2,610.7l1.2,30.8l2,52.6c-16.9,13.5-34,15.9-51.4,4.6l0.8-24.6l1.3-37.2L1336.2,610.7z"/>
	<path class="st4" d="M1310.4,708.9c-8.1,0-16.1-2.6-24-7.7c-0.9-0.6-1.4-1.6-1.3-2.7l2.1-61.8c0-1.1,0.6-2,1.6-2.6l46-26.2
		c1.5-0.8,3.4-0.3,4.2,1.2c0.2,0.4,0.4,0.9,0.4,1.4l3.2,83.4c0,1-0.4,1.9-1.2,2.5C1331,704.8,1320.6,708.9,1310.4,708.9z
		 M1291.2,696.9c14.8,9,29.6,7.6,45.1-4.3l-2.9-76.7l-40.2,22.8L1291.2,696.9z"/>
	<path class="st4" d="M1320.3,619.7c0.7,13.9,5,61.1-31.9,68.6l1.8-51.4L1320.3,619.7z"/>
	<path class="st3" d="M1243.3,620.5c5,24.9,15.2,54.4,45,46.7c35.4-9.1,56.2-36.8,53.2-71c-3-34.2-20.7-52-61.2-44.1
		c-3.5,0.7-6.8,1.6-10.1,2.8c-22.9,8.6-32.9,29.3-29.2,52.1C1241.6,611.2,1242.3,615.8,1243.3,620.5z"/>
	<path class="st4" d="M1279.2,671.6c-5.7,0.1-11.2-1.6-16-4.7c-16.2-10.6-21.5-36.2-25.3-59.2c-4.7-29.2,12.1-52.7,41.7-58.5
		c1.7-0.4,3.3,0.6,3.7,2.3c0.4,1.7-0.6,3.3-2.3,3.7c-0.1,0-0.2,0-0.3,0.1c-26.6,5.2-41.1,25.4-36.9,51.4
		c2.6,15.8,7.3,45.1,22.6,55.1c5.8,3.8,12.7,4.6,21,2.5c13.2-3.4,24.2-9.4,32.9-17.7c1.3-1.1,3.2-1,4.4,0.3c1.1,1.2,1,3-0.1,4.2
		c-10,9.4-22.3,16-35.6,19.2C1285.9,671.1,1282.6,671.5,1279.2,671.6z"/>
	<path class="st4" d="M1355.6,599.7c-3,5.4-6.5,10.5-10.4,15.3l-16.2,2.9l-4-12.5c0,0-14.8,0.5-17.9-7.1c-0.1-0.2-0.1-0.4-0.2-0.5
		c-0.9-2.5-4.3-13.7-4.3-31.7c0,0-26.7,15-41.7,18.1c-5.4,1.1-12-0.4-18.2-2.7c-12.5-4.7-24.7-23.1-23.9-36.4V545
		c1.3-19.5,12.7-7.2,12.7-7.2s1.3-15.7,10.9-17.8c9.6-2.1,17.2,11.6,17.2,11.6c18.2-6.1,37.3-8.8,56.5-7.9
		c38,2.1,31.2,28.7,31.2,28.7S1375.5,558.6,1355.6,599.7z"/>
	<path class="st3" d="M1323.9,602.1c0,0,14.1-19.4,32.2-16.4c18.2,3.1,17.5,44.7-26.1,45.8L1323.9,602.1z"/>
	<path class="st4" d="M1330,634.6c-1.5,0-2.7-1-3-2.5l-6.1-29.4c-0.2-0.8,0-1.7,0.5-2.4c0.6-0.9,15.4-20.9,35.2-17.6
		c8.7,1.5,14.5,10.4,13.7,21.3C1369.3,618.7,1356.4,633.9,1330,634.6L1330,634.6L1330,634.6z M1327.2,602.9l5.3,25.4
		c22.1-1.4,31-14.1,31.7-24.8c0.5-7.6-3.1-13.8-8.6-14.8C1341.9,586.4,1330.3,599.1,1327.2,602.9z"/>
	<circle class="st6" cx="950.8" cy="485.2" r="42.1"/>
	<path class="st3" d="M929.9,485.8l16.8,16.8c4,4,10.5,4,14.5,0l57.6-57.6c3.9-4.1,3.7-10.6-0.5-14.5c-4-3.7-10.1-3.7-14.1,0
		L954,480.8l-9.6-9.6c-3.9-4.1-10.4-4.3-14.5-0.5s-4.3,10.4-0.5,14.5C929.6,485.5,929.8,485.6,929.9,485.8L929.9,485.8L929.9,485.8z
		"/>
	<path class="st4" d="M954,508.7c-3.5,0-6.9-1.4-9.4-3.9l-16.8-16.8c-5-5.4-4.6-13.9,0.9-18.8c5.1-4.6,12.9-4.6,18,0l7.4,7.4
		l48.2-48.2c5-5.4,13.4-5.8,18.8-0.9c5.4,5,5.8,13.4,0.9,18.8c-0.3,0.3-0.6,0.6-0.9,0.9l-57.6,57.6
		C960.9,507.2,957.5,508.6,954,508.7z M937.2,471.3c-4,0-7.2,3.2-7.2,7.2c0,1.9,0.8,3.7,2.1,5.1l0,0l16.8,16.8
		c2.9,2.7,7.3,2.7,10.2,0l57.6-57.6c2.9-2.7,3-7.3,0.2-10.2c-2.7-2.9-7.3-3-10.2-0.2c-0.1,0.1-0.2,0.2-0.2,0.2L956.2,483
		c-0.6,0.6-1.4,0.9-2.2,0.9l0,0c-0.8,0-1.6-0.3-2.2-0.9l-9.5-9.5C940.9,472.1,939.1,471.3,937.2,471.3z"/>
	<path class="st5" d="M1029.8,470.7h123.4c5.7,0,10.4,4.6,10.4,10.4l0,0c0,5.7-4.6,10.4-10.4,10.4h-123.4c-5.7,0-10.4-4.6-10.4-10.4
		l0,0C1019.4,475.4,1024.1,470.7,1029.8,470.7z"/>
	<circle class="st6" cx="950.8" cy="589.7" r="42.1"/>
	<path class="st3" d="M929.9,590.3l16.8,16.8c4,4,10.5,4,14.5,0l57.6-57.6c3.9-4.1,3.7-10.6-0.5-14.5c-4-3.7-10.1-3.7-14.1,0
		L954,585.3l-9.6-9.5c-3.9-4.1-10.4-4.3-14.5-0.5c-4.1,3.9-4.3,10.4-0.5,14.5C929.6,590,929.8,590.2,929.9,590.3L929.9,590.3
		L929.9,590.3z"/>
	<path class="st4" d="M954,613.2c-3.5,0-6.9-1.4-9.4-3.9l-16.8-16.8c-5-5.4-4.6-13.9,0.9-18.8c5.1-4.6,12.9-4.6,18,0l7.4,7.4
		l48.2-48.3c5-5.4,13.4-5.8,18.8-0.9c5.4,5,5.8,13.4,0.9,18.8c-0.3,0.3-0.6,0.6-0.9,0.9l-57.6,57.6
		C960.9,611.7,957.5,613.1,954,613.2z M937.2,575.8c-4,0-7.2,3.2-7.2,7.2c0,1.9,0.8,3.7,2.1,5.1l0,0l16.8,16.8
		c2.9,2.7,7.3,2.7,10.2,0l57.6-57.6c2.7-2.9,2.6-7.4-0.2-10.2c-2.8-2.7-7.2-2.7-9.9,0l-50.4,50.4c-0.6,0.6-1.4,0.9-2.2,0.9l0,0
		c-0.8,0-1.6-0.3-2.2-0.9l-9.5-9.6C940.9,576.5,939.1,575.8,937.2,575.8z"/>
	<path class="st5" d="M1029.8,575.2h123.4c5.7,0,10.4,4.6,10.4,10.4l0,0c0,5.7-4.6,10.4-10.4,10.4h-123.4c-5.7,0-10.4-4.6-10.4-10.4
		l0,0C1019.4,579.9,1024.1,575.2,1029.8,575.2z"/>
	<path class="st5" d="M997.1,728l6.4-0.4c6.8-0.5,12.2-5.9,12.6-12.6l0.4-6.4l0.4,6.4c0.5,6.8,5.9,12.2,12.6,12.6l6.4,0.4l-6.4,0.4
		c-6.8,0.5-12.2,5.9-12.6,12.6l-0.4,6.4l-0.4-6.4c-0.5-6.8-5.9-12.2-12.6-12.6L997.1,728z"/>
	<path class="st5" d="M1652.8,386.2l9.4-0.7c10-0.7,18-8.6,18.7-18.6l0.7-9.4l0.7,9.4c0.7,10,8.7,18,18.6,18.6l9.4,0.7l-9.4,0.7
		c-10,0.7-17.9,8.7-18.6,18.6l-0.7,9.4l-0.7-9.4c-0.7-10-8.7-18-18.6-18.6L1652.8,386.2z"/>
	<path class="st5" d="M890.1,1071.4l7.1-0.5c7.6-0.5,13.6-6.5,14.1-14.1l0.5-7.1l0.5,7.1c0.5,7.6,6.5,13.6,14.1,14.1l7.1,0.5
		l-7.1,0.5c-7.6,0.5-13.6,6.6-14.1,14.2l-0.5,7.1l-0.5-7.1c-0.5-7.6-6.5-13.6-14.1-14.1L890.1,1071.4z"/>
	<path class="st5" d="M1090.3,1690.4l7.1-0.5c7.6-0.5,13.6-6.6,14.1-14.1l0.5-7.1l0.5,7.1c0.5,7.6,6.5,13.6,14.1,14.1l7.1,0.5
		l-7.1,0.5c-7.6,0.5-13.6,6.5-14.1,14.1l-0.5,7.1l-0.5-7.1c-0.5-7.6-6.5-13.6-14.1-14.1L1090.3,1690.4z"/>
	<circle class="st6" cx="994.7" cy="1128.4" r="6.5"/>
	<circle class="st6" cx="922.5" cy="844.8" r="19.3"/>
	<circle class="st6" cx="1057.3" cy="1776.6" r="19.3"/>
	<circle class="st6" cx="1429" cy="427.4" r="16.7"/>
</g>
</svg>
