<?xml version="1.0" encoding="utf-8"?>
<!-- Generator: Adobe Illustrator 25.2.0, SVG Export Plug-In . SVG Version: 6.00 Build 0)  -->
<svg version="1.1" id="Layer_1" xmlns="http://www.w3.org/2000/svg" xmlns:xlink="http://www.w3.org/1999/xlink" x="0px" y="0px"
	 viewBox="0 0 2950 2500" style="enable-background:new 0 0 2950 2500;" xml:space="preserve">
<style type="text/css">
	.st0{opacity:0.15;}
	.st1{fill:#609176;}
	.st2{fill:#87BFC1;}
	.st3{fill:#262424;}
	.st4{fill:#FFFFFF;}
	.st5{fill:#DD9144;}
	.st6{fill:#F0F2F1;stroke:#000000;stroke-miterlimit:10;}
	.st7{fill:#84BCBB;stroke:#000000;stroke-miterlimit:10;}
	.st8{fill:#86BEC0;}
	.st9{fill:#DC9044;}
	.st10{font-family:'FranklinGothic-Heavy';}
	.st11{font-size:48.2589px;}
</style>
<g id="Layer_1_1_">
	<g class="st0">
		<path class="st1" d="M1839.1,2059.2c-124.6,0-213-30.2-306.7-62.1c-115.3-39.4-246-83.9-473.1-83.9c-8.4,0-16.9,0.1-25.5,0.2
			c-64.9,0.9-116,5-161,8.6c-35.3,2.8-65.8,5.2-93.5,5.2c-54.1,0-93.6-9.8-136.2-33.6c-42.6-23.8-79.5-57.5-109.9-99.8
			C506,1756,484,1711,467.8,1660.2c-27.2-85.2-37.5-186.8-28.1-278.4c8.7-85.7,36-169.3,80.9-248.3c28.9-50.8,64.7-99,106.3-143.4
			l0.1-0.1v-0.1c63.4-184.7,138.6-324.6,223.5-416c34.9-37.7,72.2-67.8,110.8-89.5c32.2-18.1,66.3-30.9,101.1-37.8
			c20.2-4.1,40.4-6.2,59.9-6.2c90,0,163.2,42.4,248.1,91.4c102.2,59.1,218,126,398,141.9c24.6,2.2,49.6,3.3,74.2,3.3
			c185.9,0,335.5-61.9,455.7-111.7c81.6-33.8,152.1-62.9,211.4-62.9c32.9,0,60.7,8.9,85.4,27.3c64.8,48.2,83.7,144.5,88.3,216.9
			c5.1,80.2-4.6,174.7-26.1,252.7c-11.3,41.2-24.3,70.6-35.6,96.5c-18.5,41.9-33.1,75-32.3,135.7c0.9,68.6,20.7,113.4,39.8,156.7
			c18.5,42,36,81.6,33.6,138.5c-4.6,107.3-77.2,185.6-130.1,242.9c-219.1,236.5-556.5,279.8-594.4,284
			C1903.6,2057.3,1870.4,2059.2,1839.1,2059.2z"/>
		<path d="M1122.3,441c89.7,0,163,42.4,247.7,91.2c102.3,59.1,218,126.1,398.2,141.9c24.6,2.2,49.7,3.3,74.2,3.3
			c186,0,335.7-61.9,455.9-111.7c81.5-33.8,152-62.9,211.2-62.9c32.6,0,60.5,8.8,85,27.2c27.2,20.2,48.5,50.7,63.5,90.6
			c13.2,35.2,21.5,77.5,24.5,125.8c2.7,42.4,1.3,87.8-4.1,134.9c-4.8,41.6-12.3,82.2-22.1,117.6c-11.3,41.1-24.3,70.5-35.6,96.4
			c-18.5,41.9-33.1,75.1-32.3,135.9c0.9,68.7,20.7,113.5,39.8,157c18.5,41.9,36,81.5,33.4,138.3c-2.1,47.5-17.3,93.1-46.4,139.4
			c-25.2,39.9-56.2,73.5-83.6,103c-50.4,54.3-111.1,102.7-180.5,143.8c-56.4,33.4-119,62.2-185.7,85.6
			c-116.4,40.7-210.1,52.5-227.7,54.4c-34.4,3.8-67.6,5.7-98.9,5.7c-56.9,0-109-6-164.2-18.8c-49.1-11.5-94.4-26.9-142.3-43.3
			c-115.3-39.4-246.1-83.9-473.2-83.9c-8.4,0-16.9,0.1-25.5,0.2c-64.9,0.9-116,5-161.1,8.6c-35.3,2.8-65.8,5.2-93.5,5.2
			c-54,0-93.5-9.8-135.9-33.6c-42.5-23.8-79.4-57.3-109.8-99.7c-27.2-37.8-49.1-82.8-65.2-133.4c-27.2-85.2-37.4-186.6-28.1-278.2
			c8.7-85.7,36-169.1,80.8-248.1c28.8-50.8,64.5-99,106.2-143.4l0.2-0.2l0.1-0.2c33.4-97.2,70.5-182.6,109.8-254.1
			c35.4-64,73.6-118.3,113.5-161.5c34.9-37.7,72.2-67.8,110.5-89.4c32.2-18.1,66.1-30.8,101-37.8
			C1082.7,443.1,1102.8,441,1122.3,441 M1122.3,439.9c-19.2,0-39.1,2-60,6.2c-125.7,25.2-294.8,133.6-435.8,543.4
			c-54.2,57.6-167.2,194.5-187.4,392c-16.4,160.7,23.5,411.5,203.6,512.4c46.7,26.1,87.5,33.7,136.5,33.7
			c62.2,0,137.6-12.2,254.6-13.8c8.6-0.1,17.1-0.2,25.5-0.2c412.9,0,502.8,146,779.8,146c30.5,0,63.3-1.7,99-5.7
			c34.8-3.8,374.9-46.7,594.7-284.2c54.1-58.4,125.7-135.7,130.4-243.2c5-115.3-71.5-159.7-73.4-295.3
			c-1.3-98.8,38.7-125.4,67.9-232.1c36.7-134,53.8-383.8-62.5-470.3c-26-19.4-54.4-27.4-85.8-27.4c-146.2,0-354.2,174.6-667.1,174.6
			c-24,0-48.8-1-74.2-3.3C1437.6,644,1319.8,439.9,1122.3,439.9L1122.3,439.9z"/>
	</g>
</g>
<g id="Layer_2_1_">
	<path class="st2" d="M1789.4,541.2h683.2c54.1,0,98.1,40.2,98.1,89.6v1341c0,49.5-43.9,89.6-98.1,89.6h-683.2
		c-54.2,0-98.1-40.2-98.1-89.6v-1341C1691.4,581.3,1735.3,541.2,1789.4,541.2z"/>
	<path class="st3" d="M2069.7,600.7h124.9c7.9,0,14.3,5.8,14.3,13l0,0c0,7.2-6.4,13-14.3,13h-124.9c-7.9,0-14.3-5.8-14.3-13l0,0
		C2055.4,606.5,2061.8,600.7,2069.7,600.7z"/>
	<path class="st4" d="M2505.6,630.9v1341c0,16.6-14.9,30.1-33,30.1h-683.2c-18.2,0-33-13.5-33-30.1v-1341c0-16.6,14.7-30.2,33-30.2
		l0,0h200.6c14.2,0,25.7,10.4,25.7,23.5l0,0l0,0c0,13,11.5,23.5,25.7,23.5l0,0h179.4c14.2,0,25.7-10.4,25.7-23.5l0,0l0,0
		c0-13,11.5-23.5,25.7-23.5l0,0h200.6C2490.9,600.7,2505.6,614.1,2505.6,630.9C2505.6,630.7,2505.6,630.9,2505.6,630.9z"/>
	<path class="st3" d="M2472.7,2005.5h-683.2c-20.4,0-36.9-15.1-36.9-33.8V630.9c0-18.6,16.5-33.7,36.9-33.7h200.6
		c16.4,0,29.6,12.1,29.6,27c0,11,9.8,19.9,21.7,19.9h179.4c12,0,21.7-8.9,21.7-19.9c0-14.9,13.2-27,29.6-27h200.6
		c20.4,0,36.9,15.1,36.9,33.7v1341C2509.6,1990.4,2493,2005.5,2472.7,2005.5z M1789.5,604.3c-16,0-29,11.8-29,26.6v1341
		c0,14.6,13,26.6,29,26.6h683.2c16,0,29-11.8,29-26.6v-1341c0-14.6-13-26.6-29-26.6h-200.6c-12,0-21.7,8.9-21.7,19.9
		c0,14.9-13.2,27-29.6,27h-179.4c-16.4,0-29.6-12.1-29.6-27c0-11-9.8-19.9-21.7-19.9H1789.5L1789.5,604.3z"/>
	<path class="st2" d="M1961.5,1728.4h339c54.9,0,99.4,40.6,99.4,90.9l0,0c0,50.2-44.6,90.9-99.4,90.9h-339
		c-54.9,0-99.5-40.6-99.5-90.9l0,0C1862.2,1769,1906.6,1728.4,1961.5,1728.4z"/>
	<path class="st4" d="M2332.1,864.3L2332.1,864.3c16.4,0,29.6,12.1,29.6,27V939c0,15-13.2,27-29.6,27l0,0c-16.4,0-29.6-12.1-29.6-27
		v-47.6C2302.5,876.4,2315.7,864.3,2332.1,864.3z"/>
	<path class="st4" d="M2386.4,939c0.2-4.2-3.4-7.7-7.9-7.9s-8.5,3-8.6,7.2c0,0.2,0,0.5,0,0.7c0,19.2-16.9,34.6-37.8,34.6
		s-37.8-15.4-37.8-34.6c-0.2-4.2-4.1-7.4-8.6-7.2c-4.3,0.2-7.7,3.3-7.9,7.2c0,24.5,19.6,45.3,46,49.1v21.7h-14
		c-4.5,0-8.2,3.4-8.2,7.5l0,0c0,4.2,3.7,7.5,8.2,7.5h44.7c4.5,0,8.2-3.4,8.2-7.5l0,0c0-4.2-3.7-7.5-8.2-7.5h-14v-21.7
		C2366.8,984.4,2386.4,963.5,2386.4,939z"/>
	<path class="st5" d="M1675.2,984.1h930.1c40.3,0,73,29.8,73,66.8v330.7c0,36.8-32.7,66.8-73,66.8h-930.1c-40.3,0-73-29.8-73-66.8
		v-330.7C1602.2,1014,1635,984.1,1675.2,984.1z"/>
	<path class="st4" d="M1755.9,1041.8h394.7c23.3,0,42.4,17.3,42.4,38.7l0,0c0,21.4-18.9,38.7-42.4,38.7h-394.7
		c-23.3,0-42.4-17.3-42.4-38.7l0,0C1713.6,1059.1,1732.5,1041.8,1755.9,1041.8z"/>
	<path class="st4" d="M1755.9,1250.6h394.7c23.3,0,42.4,17.3,42.4,38.7l0,0c0,21.4-18.9,38.7-42.4,38.7h-394.7
		c-23.3,0-42.4-17.3-42.4-38.7l0,0C1713.6,1267.9,1732.5,1250.6,1755.9,1250.6z"/>
	<g>
		<path class="st6" d="M2462.5,1371.5c-22.5,0-43.1-11.8-53.5-30.9c-9.2-16.7-8.6-35.5,1.7-51.9l104.5-165.3
			c10.8-16.9,30.8-27.5,52.2-27.5c10.6,0,21,2.6,30.2,7.4l0.3,0.2h0.1c14.2,7.7,24.1,19.9,28,34.5c3.7,13.8,1.4,28.2-6.4,40.5
			l-104.5,165.3c-7.9,12.5-21.2,21.9-36.6,25.7C2473.1,1370.9,2467.7,1371.5,2462.5,1371.5z"/>
		<path class="st7" d="M2567.3,1096.6c10.4,0,20.8,2.6,29.8,7.3l0.7,0.3h0.1c13.8,7.5,23.6,19.6,27.4,33.9
			c3.6,13.7,1.4,27.9-6.3,40.1l-104.5,165.3c-7.8,12.4-21,21.7-36.2,25.4c-5.3,1.3-10.7,2-15.9,2c-22.4,0-42.7-11.7-53.1-30.5
			c-9.1-16.5-8.5-35.2,1.7-51.2l104.5-165.4C2526.2,1107.1,2546,1096.6,2567.3,1096.6 M2567.3,1095.5c-21,0-41.4,10-52.7,27.7l0,0
			l-104.5,165.3c-24.1,38.2,7.9,83.6,52.4,83.6c5.2,0,10.7-0.6,16.1-2c15.6-3.8,28.9-13.1,36.9-25.9l104.5-165.3
			c16.8-26.6,6.8-60.6-22.2-76h-0.1C2588.2,1097.9,2577.6,1095.5,2567.3,1095.5L2567.3,1095.5z"/>
	</g>
	<g>
		<path class="st4" d="M2454.1,1369.1c-21.7,0-41.8-10.4-52.5-27.3l-104.5-162.2c-10.1-15.8-10.9-34-2.1-50.3
			c10.2-18.7,31.3-30.8,53.9-30.8c5.3,0,10.7,0.7,16,2c15.3,3.6,28.7,12.8,36.7,25.1l104.4,162.1l0.1,0.2l0.3,0.6
			c7.7,12.1,9.9,26,6.2,39.5c-3.9,14.6-14.2,26.7-28.7,34.1C2474.9,1366.6,2464.6,1369.1,2454.1,1369.1L2454.1,1369.1z"/>
		<path d="M2349,1099.1c5.2,0,10.6,0.6,15.9,2c15.2,3.6,28.4,12.7,36.2,24.8l104.3,161.9v0.1l0.2,0.2c0.1,0.2,0.2,0.3,0.3,0.5
			c7.5,11.8,9.8,25.8,6.2,39c-3.9,14.4-14,26.4-28.4,33.8c-9.1,4.6-19.3,7.1-29.6,7.1c-21.5,0-41.4-10.3-52-27l-104.5-162.2
			c-10-15.6-10.8-33.7-2-49.7C2305.7,1111,2326.6,1099.1,2349,1099.1 M2402.2,1125.2c-8-12.5-21.4-21.7-37-25.4
			c-5.5-1.3-10.9-2-16.1-2l0,0c-44.5,0-76.5,44.6-52.4,82l104.5,162.2c11.3,17.6,31.8,27.6,52.9,27.6c10.2,0,20.5-2.3,30.1-7.2
			c29.3-15,39.5-48.3,22.8-74.4c-0.1-0.2-0.2-0.3-0.3-0.6v-0.1"/>
	</g>
	<path class="st2" d="M1569.4,609.5c7.4,8.5,5.9,20.9-3.4,27.7c-2.4,1.9-5.3,3.1-8.5,3.7c-1.3,0.2-2.2,1.5-1.9,2.7
		c0.1,0.3,0.2,0.7,0.5,0.9l23.6,26.9c2.6,2.9,2.1,7.1-1.2,9.4l0,0l-29.8,21.7c-1,0.8-2.6,0.6-3.5-0.3c-0.2-0.2-0.5-0.6-0.5-0.9
		c-2.2-10.7-13.5-17.6-25.2-15.7c-11.7,2.1-19.4,12.3-17.2,23c1.4,6.4,6,11.8,12.7,14.4c1.3,0.5,1.9,1.9,1.3,2.9
		c-0.1,0.3-0.3,0.6-0.7,0.8l-28.8,21c-3.1,2.3-7.8,1.9-10.3-1l0,0l-24-27.3c-0.8-0.9-0.7-2.4,0.3-3.1c0.3-0.2,0.7-0.3,1-0.5
		c11.7-1.7,19.7-12,17.8-22.6s-13-18-24.7-16.3c-7.4,1.2-13.7,5.7-16.5,12.1c-0.5,1.2-2,1.7-3.3,1.2c-0.3-0.1-0.7-0.3-0.9-0.7
		l-23.1-26.5c-2.6-2.9-2.1-7.1,1.2-9.4l0,0l28.3-20.8c1-0.8,1.3-2.2,0.3-3.1c-0.2-0.2-0.6-0.5-0.9-0.6c-10.7-4.8-15.1-16.6-10-26.4
		c5.2-9.8,18.1-13.8,28.8-9.1c5.8,2.6,10.1,7.4,11.5,13.1c0.2,1.2,1.6,2,2.9,1.7c0.3-0.1,0.7-0.2,1-0.5l29.4-21.5
		c3.1-2.3,7.8-1.9,10.3,1l0,0l22.8,25.9c0.8,0.9,2.4,1.2,3.5,0.3c0.2-0.2,0.5-0.5,0.7-0.8c5.2-9.8,18.1-13.8,28.8-9.1
		C1564.8,605.4,1567.4,607.3,1569.4,609.5z"/>
	<path class="st5" d="M1429.8,1844.2c-6.3,11.7-0.9,25.8,12,31.6c3.9,1.7,8.4,2.6,12.8,2.3c1.6-0.1,3,1,3.1,2.6
		c0,0.5-0.1,0.9-0.2,1.4l-20.1,37.7c-2.1,3.9-7.4,5.7-11.7,3.7l0,0l-39.6-17.6c-1.5-0.7-2.1-2.2-1.4-3.6c0.2-0.3,0.5-0.7,0.9-1
		c11.5-7.7,14-22.5,5.7-33.1c-8.4-10.6-24.6-12.9-36.1-5.1c-7,4.6-10.9,12.1-10.6,19.9c0.1,1.5-1.2,2.7-2.8,2.8
		c-0.5,0-0.9-0.1-1.4-0.2l-39.6-17.6c-4.4-2-6.2-6.7-4.1-10.7l0,0l20.1-37.7c0.7-1.4,2.4-1.9,3.9-1.3c0.5,0.2,0.8,0.5,1.2,0.9
		c8.1,10.7,24.1,13.4,35.9,5.9s14.6-22.2,6.5-32.9c-5.1-6.7-13.7-10.6-22.8-10.1c-1.6,0.1-3-1-3.1-2.6c0-0.5,0.1-0.9,0.2-1.3
		l19.4-36.5c2.1-3.9,7.4-5.7,11.7-3.7l0,0l39.1,17.4c1.5,0.7,3.3,0.1,3.9-1.3c0.2-0.3,0.2-0.8,0.2-1.2c0.1-13,11.8-23.6,26.2-23.5
		c14.3,0.1,25.8,10.8,25.7,23.9c-0.1,7.1-3.6,13.7-9.6,18.2c-1.3,0.9-1.5,2.6-0.5,3.8c0.2,0.3,0.6,0.6,1,0.8l39.1,17.4
		c4.4,2,6.2,6.7,4.1,10.8l0,0l-19.5,36.5c-0.7,1.4-2.4,1.9-3.9,1.3c-0.5-0.2-0.8-0.5-1.2-0.9c-8.1-10.7-24.1-13.4-35.9-5.9
		C1434.7,1837.5,1431.8,1840.6,1429.8,1844.2z"/>
	<polygon class="st4" points="1105.6,1709.2 1068.6,1795 1103.1,1814.3 1159.1,1727.9 	"/>
	<path class="st3" d="M1103.1,1817.2c-0.6,0-1-0.1-1.6-0.5l-34.6-19.3c-1.4-0.7-1.9-2.2-1.3-3.6l37-85.8c0.6-1.5,2.4-2.2,4.1-1.6
		l0,0l53.5,18.7c1.6,0.6,2.4,2.2,1.9,3.7c-0.1,0.1-0.1,0.3-0.2,0.5l-56,86.4C1105.4,1816.6,1104.3,1817.2,1103.1,1817.2z
		 M1072.5,1793.7l29.5,16.5l52.4-80.8l-47-16.4L1072.5,1793.7z"/>
	<path class="st2" d="M989.3,1784.5l109.9,243.3c8.2-2.9,16.3-6.4,24-10.4c18-10,19.3-20.4,18.8-47.7c-0.7-36.3,9.3-177.2,9.3-177.2
		l-84.9-36.5l-52.6,19.4L989.3,1784.5z"/>
	<path class="st4" d="M989.3,1784.5l109.9,243.3c8.2-2.9,16.3-6.4,24-10.4l-109.4-241.9L989.3,1784.5z"/>
	<path class="st3" d="M1099.2,2030.7c-1.3,0-2.4-0.7-2.9-1.9l-109.9-243.3c-0.7-1.5,0.1-3.1,1.6-3.8c0,0,0,0,0.1,0l24.6-9.1
		c1.6-0.6,3.5,0.1,4.2,1.5l0,0l109.4,241.9c0.6,1.4,0.1,2.9-1.3,3.6c-7.9,4.1-16,7.7-24.4,10.7
		C1100,2030.6,1099.7,2030.7,1099.2,2030.7z M993.4,1786.1l107.5,237.9c6.3-2.3,12.3-4.9,18.2-7.9l-107-236.9L993.4,1786.1z"/>
	<path class="st2" d="M884.4,1125.5c-5.1,74.3-2.1,152.3,13.4,175.5c15.4,23.2,267.5,211.4,267.5,211.4l-61.8,190.4l82.4,40.4
		c0,0,68.6-121.3,102.2-182.8c16.3-29.8,28.7-53.5,29.7-58.3c1.3-6.3-10.7-27.4-30-56.2c-63.3-95-204.6-273.2-204.6-273.2
		C1077.3,978.7,889.5,1051.2,884.4,1125.5z"/>
	<path class="st3" d="M936.8,1216.1c-1.7,0.1-3.3-1.2-3.3-2.8c0-1.3,0.7-2.4,2-2.8l15.2-6.2c11.1-4.5,18.7-14.3,19.7-25.4l4.4-50.4
		c0.1-1.6,1.6-2.8,3.4-2.7s3,1.5,2.9,3.1l0,0l-4.4,50.4c-1.2,13.2-10.1,24.8-23.5,30.3l-15.2,6.2
		C937.6,1216,937.1,1216.1,936.8,1216.1z"/>
	<path class="st3" d="M1135.5,1698.7c-1.7,0-3.3-1.3-3.3-2.9c0-0.3,0.1-0.7,0.2-1l75.8-194.3l-257.5-250.5
		c-11.8-11.5-18-26.9-16.9-42.7l5.6-79.6c0.1-1.6,1.6-2.8,3.4-2.7c1.7,0.1,3.1,1.5,3,3.1l-5.6,79.6c-0.9,14.2,4.5,28,15.2,38.3
		l258.9,251.8c0.8,0.8,1,2,0.7,3l-76.5,196.1C1138.1,1697.9,1136.9,1698.7,1135.5,1698.7z"/>
	<path class="st3" d="M1170.9,1514.1c-1.7,0.1-3.3-1.2-3.4-2.7c-0.1-1.4,0.9-2.7,2.4-3l65.4-18.3c1.6-0.5,3.5,0.3,3.9,2
		c0.5,1.5-0.5,3.1-2.1,3.7l-65.4,18.3C1171.5,1514.1,1171.3,1514.1,1170.9,1514.1z"/>
	<path class="st4" d="M1248,1499.3c-2,28.4,15.2,53.4,39.9,60.9c16.3-29.8,28.7-53.5,29.7-58.3c1.3-6.3-10.7-27.4-30-56.2
		C1266.3,1453.2,1249.8,1474,1248,1499.3z"/>
	<path class="st5" d="M1226.6,1698.8l-110.3-48.9c-3.1-1.4-7-0.2-8.5,2.7c-0.1,0.2-0.2,0.5-0.2,0.6l-24.4,61.2
		c-1.2,2.8,0.3,6,3.4,7.2l100,42c3,1.3,6.5,0.2,8.2-2.3l34.6-54.3c1.7-2.8,0.8-6.3-2.2-7.9C1226.9,1699,1226.8,1698.9,1226.6,1698.8
		z"/>
	<polygon class="st4" points="666.9,1714.1 590.3,1774.2 611,1805.9 704.6,1753.5 	"/>
	<path class="st3" d="M611,1809c-1.2,0-2.2-0.6-2.8-1.4l-20.8-31.8c-0.8-1.3-0.6-2.8,0.7-3.7l76.5-60c1.3-1,3.4-0.9,4.5,0.2l0,0
		l37.7,39.4c1.2,1.3,0.9,3-0.3,4.1c-0.1,0.1-0.2,0.2-0.3,0.2l-93.6,52.5C612.2,1808.7,611.6,1809,611,1809z M594.4,1774.8l17.8,27.2
		l87.5-49.1l-33.2-34.6L594.4,1774.8z"/>
	<path class="st2" d="M525.5,1731.1l-26.9,262c8.8,0.9,17.6,1.3,26.6,0.9c21-1.2,27.4-9.9,41-34.2c18-32.5,98.8-152.7,98.8-152.7
		l-56.4-68.4l-56.4-5.2L525.5,1731.1z"/>
	<path class="st4" d="M525.5,1731.1l-26.9,262c8.8,0.9,17.6,1.3,26.6,0.9l26.8-260.6L525.5,1731.1z"/>
	<path class="st3" d="M519.6,1997.1c-5.6,0-12.3-0.3-21.4-1.2c-1.7-0.1-3-1.5-2.9-3.1c0,0,0,0,0-0.1l26.9-262
		c0.1-1.6,1.7-2.8,3.5-2.7c0,0,0,0,0.1,0l26.5,2.4c1.7,0.1,3,1.5,2.9,3.1l0,0l-27,260.7c-0.1,1.4-1.4,2.6-3,2.7
		C523.5,1997.1,521.5,1997.1,519.6,1997.1z M502,1990.4c6.7,0.6,13.5,0.9,20.1,0.8l26.4-255.2l-20.1-1.9L502,1990.4z"/>
	<path class="st2" d="M769.4,1103.5c-42.5,63.5-79.6,133.9-77.8,160.9s128.6,301,128.6,301l-152,142.1l52.2,70.9
		c0,0,122.6-78,183.8-118.2c29.6-19.4,52.7-35.1,56.1-39c4.3-5,4.5-28.8,2.2-62.3c-7.4-111-41.4-328.8-41.4-328.8
		C1014.9,1056,811.9,1040.1,769.4,1103.5z"/>
	<path class="st3" d="M934.9,1326.1c-1.6,0-3-1-3.1-2.6c-7.5-53.2-13.7-92.6-13.7-93.1c-0.1-0.6,0-1.2,0.3-1.7
		c7.7-13.8,13.8-28.3,18.3-43.2c0.5-1.5,2.2-2.4,3.9-2.1c1.7,0.5,2.7,2.1,2.2,3.6l0,0c-4.6,15-10.8,29.6-18.3,43.5
		c0.9,6.2,6.7,43.5,13.7,92.3c0.2,1.6-0.9,3-2.7,3.3l0,0L934.9,1326.1z"/>
	<path class="st3" d="M790,1207.4c-0.9,0-1.7,0-2.7-0.1l-16.6-1c-1.7-0.1-3.1-1.5-2.9-3.1c0.1-1.6,1.6-2.8,3.4-2.7l16.6,1
		c12.2,0.7,23.8-4.6,30.4-14l29.6-42.7c0.9-1.4,2.9-1.7,4.4-0.9c1.5,0.8,2,2.7,0.9,4.1l0,0l-29.6,42.7
		C816.3,1201.1,803.6,1207.4,790,1207.4z"/>
	<path class="st3" d="M700.2,1717.9c-1.7,0-3.3-1.3-3.3-2.8c0-0.8,0.3-1.6,1-2.2l166.4-139.5L764.6,1242
		c-4.6-15.2-2.2-31.5,6.8-44.9l45.5-68c0.9-1.4,2.9-1.9,4.4-0.9c1.5,0.8,2,2.7,1,4.1l-45.5,68c-8.1,12.1-10.3,26.7-6.2,40.3
		l100.3,333.1c0.3,1,0,2.2-0.9,2.9l-167.8,140.8C701.7,1717.6,701,1717.9,700.2,1717.9z"/>
	<path class="st3" d="M893,1581.4c-0.2,0-0.3,0-0.6,0l-67.1-11.6c-1.7-0.3-2.9-1.9-2.6-3.5s2-2.7,3.7-2.3l67.1,11.6
		c1.7,0.1,3,1.5,2.9,3.1C896.4,1580.4,894.8,1581.5,893,1581.4z"/>
	<path class="st4" d="M900,1589.3c-16.3,24.4-13.8,53.6,4.3,70.9c29.6-19.4,52.7-35.1,56.1-39c4.3-5,4.5-28.8,2.2-62.3
		C939.6,1556.2,914.5,1567.7,900,1589.3z"/>
	<path class="st5" d="M779.1,1756.6l-72.6-90.3c-2.1-2.6-6-3.1-8.8-1.3c-0.2,0.1-0.3,0.2-0.6,0.5l-52.8,43.8
		c-2.4,2.1-2.8,5.5-0.8,7.9l67,79.8c2,2.4,5.7,3,8.5,1.4l58.4-33.3c3-1.7,3.8-5.2,2.1-8C779.3,1756.8,779.3,1756.7,779.1,1756.6z"/>
	<path class="st5" d="M1258,779c22.4,15.3,40.1,35.6,51.3,59c18,38.2,63.5,195.8,63.5,195.8l-139.4,25.2c0,0-34.1-133.9-48.4-203
		S1216.2,757.3,1258,779z"/>
	<path class="st3" d="M1243.2,1032.2c-2.2,0-3.9-1.6-3.8-3.6c0-1.6,1.3-3.1,3-3.5l111.1-21.7c2.1-0.2,4.2,1,4.4,3
		c0.3,1.9-0.9,3.5-2.9,3.9l-111.1,21.7C1243.7,1032.2,1243.5,1032.2,1243.2,1032.2z"/>
	<path class="st5" d="M1141.3,727.6c-95.7-9.1-185.7,23.9-185.7,23.9s-92.9,214-118.2,253.1c-25.3,39.1-122.2,143.6-122.2,143.6
		s85.7,119,261.1,130.5c175.4,11.5,214.3-33.3,214.3-33.3l31-221.3c0,0,35.8-36.2,45.3-55.8c9.5-19.6,16.7-137.1-8.7-189.3
		C1258,779,1189.8,732.2,1141.3,727.6z"/>
	<path class="st3" d="M1231.9,1017c-2.2,0-3.9-1.6-3.9-3.6c0-0.8,0.3-1.6,0.9-2.3c10.2-11,28.1-31.3,34.2-44
		c7.7-15.7,14.9-106.1-0.9-164.6c-0.3-2,0.9-3.8,3.1-4.2c2-0.3,3.9,0.7,4.5,2.4c15.2,56.5,9.5,150.7,0.5,169.3
		c-6.2,12.8-22.8,31.9-35.4,45.7C1234.1,1016.5,1233.1,1017,1231.9,1017z"/>
	<path class="st2" d="M1138,720.9c-45.7,5-65.5,64.1-9.5,90.8c0,0,13.6-26,22.1-24.8c8.5,1.2,9.3,27.3,9.3,27.3s34-10.2,39.1-44.6
		C1204,735.2,1171.5,717.2,1138,720.9z"/>
	<path class="st4" d="M1180.2,763.1c0,0-6.3,10.2-23.2,9.5c-15.2-6-26.9-17.4-32.7-31.6l36.1-66.1l12.5,8.1l30.6,19.7l-19.4,50
		L1180.2,763.1z"/>
	<path class="st3" d="M1158.8,776.3h-1.7c-0.5,0-0.8-0.1-1.2-0.2c-16.3-6.4-28.8-18.6-34.9-33.8c-0.3-0.9-0.3-2,0.2-2.8l36.1-66.1
		c0.9-1.7,3.4-2.4,5.2-1.6c0.2,0.1,0.3,0.2,0.5,0.2l43.2,27.9c1.4,0.9,2,2.6,1.4,4.1l-23.5,60.3c-0.1,0.2-0.1,0.3-0.2,0.6
		C1183.5,765.3,1176.5,776.3,1158.8,776.3z M1157.9,769.1c12.5,0.3,17.9-6.3,18.8-7.5l22.2-57.2l-37-23.8l-33.2,60.9
		C1134.3,753.7,1144.7,763.6,1157.9,769.1z M1180.2,763.1L1180.2,763.1z"/>
	<path class="st3" d="M1184.3,753c-38.7-19.6-19.9-67.9-19.9-67.9c2.8-0.8,5.7-1.4,8.6-1.9l30.6,19.7L1184.3,753z"/>
	<path class="st3" d="M1030.2,1253.3c-11.1,0-22.8-0.3-35.2-1.2c-80.5-5-142.4-35.9-180.3-60.9c-41-27-62.7-52.6-63.6-53.6
		c-1.2-1.6-0.7-3.8,1.2-5c1.6-0.9,3.8-0.7,5.1,0.6c0.2,0.2,22.1,25.9,62.2,52.4c36.9,24.4,97.5,54.4,176,59.3
		c127.1,8,180.1-30.3,180.6-30.6c1.6-1.3,4.2-1,5.6,0.6c1.4,1.5,1,3.7-0.6,5C1179.1,1221.4,1135.1,1253.3,1030.2,1253.3z"/>
	<path class="st4" d="M1526.5,1144.6c0,33.7-29.8,60.9-66.6,60.9c-9.9,0-19.5-2-28.4-5.8c-3.8-1.7-8.4-0.2-10.2,3.3
		c-0.5,0.9-0.8,2-0.8,3v106.5c0,11.5-10.2,20.8-22.8,20.8h-118.1c-4.2,0-7.5-3.1-7.5-7c0-1.2,0.3-2.2,0.9-3.3
		c17.3-29.7,4.9-66.6-27.6-82.4s-72.9-4.5-90.2,25.2c-10.3,17.9-10.3,39.2,0,57.1c2,3.4,0.5,7.5-3.3,9.4c-1,0.5-2.3,0.8-3.5,0.8
		h-113.8c-12.5,0-22.6-9.3-22.8-20.7v-108.5c0-3.8,3.4-7,7.5-7c1.3,0,2.6,0.3,3.7,0.9c32.2,16.5,72.8,6,90.8-23.3
		c18-29.4,6.6-66.5-25.5-82.9c-20.2-10.3-44.9-10.3-65.2,0c-3.7,1.9-8.2,0.7-10.3-2.7c-0.7-1-0.9-2.2-0.9-3.4V980.9
		c0-11.5,10.2-20.8,22.8-20.8H1147c4.2,0,7.7-3.1,7.5-7c0-1-0.2-2.1-0.8-3c-15.8-30.4-1.5-66.8,31.7-81.1c33.3-14.4,73-1.4,88.8,29
		c8.6,16.5,8.6,35.6,0,52.1c-1.9,3.5-0.2,7.7,3.5,9.3c1,0.5,2.2,0.7,3.3,0.7h116.6c12.5,0,22.8,9.3,22.8,20.8l0,0v102.5
		c0,3.8,3.5,7,7.7,7c1.2,0,2.3-0.2,3.3-0.7c33.3-14.4,73-1.3,88.7,29.1C1524.3,1126.7,1526.5,1135.6,1526.5,1144.6z"/>
	<path class="st3" d="M1397.8,1336.8h-118.1c-6.4,0-11.5-4.8-11.5-10.6c0-1.7,0.5-3.4,1.4-5c16.3-28,4.6-62.7-26-77.5
		c-30.6-14.9-68.6-4.2-84.9,23.7c-9.8,16.8-9.8,36.9,0,53.8c3,5.1,0.9,11.5-4.8,14.2c-1.6,0.8-3.6,1.3-5.5,1.3h-113.8
		c-14.7,0-26.7-10.9-26.7-24.4v-108.5c0-5.8,5.1-10.6,11.5-10.6c2,0,3.9,0.5,5.6,1.4c30.3,15.4,68.5,5.6,85.4-22.1
		c16.9-27.6,6.2-62.6-24.1-78c-19-9.8-42.3-9.8-61.3,0c-5.6,2.8-12.5,1-15.7-4.1c-0.9-1.5-1.5-3.4-1.4-5.1V980.5
		c0-13.5,12-24.4,26.7-24.4H1147c1.3,0,2.4-0.6,3.1-1.5c0.7-1,0.8-2.3,0.2-3.4c-16.7-32.2-1.6-70.7,33.6-85.9
		c35.2-15.2,77.3-1.5,94,30.6c9.1,17.5,9.1,37.7,0,55.3c-0.6,1-0.5,2.3,0.2,3.4c0.7,0.9,1.9,1.5,3.1,1.5h116.6
		c14.7,0,26.7,10.9,26.7,24.4V1083c0,1.2,0.6,2.2,1.6,2.8c1.2,0.7,2.6,0.7,3.7,0.2c9.4-4.1,19.7-6.2,30.2-6.2
		c39,0.6,70.1,29.8,69.5,65.5c-0.6,34.8-31.3,63-69.5,63.5c-10.4,0-20.8-2.1-30.2-6.2c-1.2-0.6-2.6-0.5-3.7,0.2
		c-1,0.6-1.7,1.6-1.6,2.8v106.5C1424.5,1325.8,1412.5,1336.7,1397.8,1336.8L1397.8,1336.8z M1214.1,1229.9c0.9,0,1.9,0,2.8,0
		c39,1.4,69.3,31.3,67.8,67c-0.5,9.6-3.3,19.2-8.2,27.7c-0.9,1.6-0.2,3.7,1.5,4.5c0.5,0.2,1,0.3,1.6,0.3h118.1
		c10.3,0,18.8-7.7,18.8-17.2v-106.5c0-3.6,2-7,5.3-8.8c3.4-2,7.7-2.2,11.3-0.6c8.4,3.6,17.5,5.5,26.8,5.5
		c34.6,0,62.8-25.7,62.8-57.3s-28.1-57.3-62.8-57.3c-9.3,0-18.5,1.9-26.8,5.5c-3.6,1.6-7.9,1.4-11.3-0.6c-3.4-2-5.3-5.2-5.3-8.8
		V980.6c-0.1-9.5-8.5-17.2-18.8-17.2h-116.6c-3.9,0-7.7-1.9-9.6-4.9c-2.1-3.1-2.4-7-0.7-10.2c14.9-28.7,1.5-62.8-29.8-76.4
		c-31.3-13.6-68.7-1.4-83.6,27.3c-8,15.6-8,33.6,0,49.1c1.7,3.3,1.5,7.2-0.7,10.3c-2.1,3-5.8,4.9-9.6,4.9h-112.4
		c-10.3,0-18.8,7.7-18.8,17.1v104.7c0,1.2,0.7,2.3,1.9,2.9c1.2,0.6,2.6,0.6,3.6,0c34-17.4,77-6.4,96.1,24.7c19,31.1,7,70.4-27,87.8
		c-21.5,11-47.6,11-69.1,0c-1.2-0.6-2.6-0.6-3.6,0c-1.2,0.6-1.9,1.7-1.9,2.9v108.5c0,9.5,8.5,17.2,18.8,17.2h113.8
		c1.3,0,2.6-0.6,3.1-1.6c0.7-1,0.7-2.2,0.1-3.3c-5.5-9.3-8.2-19.7-8.2-30.3C1143.7,1258.7,1175.2,1229.9,1214.1,1229.9z"/>
	<path class="st4" d="M1462.3,1069c-20.9-1.7-32.3,43.2-18.3,47.6C1457.9,1121,1484.3,1070.7,1462.3,1069z"/>
	<path class="st3" d="M1445.7,1120.4c-1,0-2.2-0.1-3.1-0.5c-7.8-2.4-10.7-12.9-7.4-26.5c3.4-14.4,13.5-29.3,27.5-28.1l0,0
		c5,0.2,9.3,3.3,10.9,7.5c4.4,10.9-5.1,31.8-15.9,41.8C1452.8,1119.1,1448.8,1120.4,1445.7,1120.4z M1461.2,1072.6
		c-8.5,0-15.8,11.4-18.3,22.5c-2.3,10-0.6,17.2,2.4,18.1c1,0.3,3.4-0.3,6.7-3.5c9.5-8.8,17.1-27.2,14.2-34.2
		c-0.6-1.7-2.3-2.8-4.3-2.8L1461.2,1072.6z"/>
	<path class="st4" d="M1481.8,1076.4c-18.9-0.3-40.1,51.1,0,58c40.1,6.8,46.8-24.3,39.2-38.4
		C1513.6,1081.9,1500.1,1076.9,1481.8,1076.4z"/>
	<path class="st3" d="M1492.8,1139.1c-3.9,0-7.8-0.3-11.6-1c-18.1-3.1-27.7-15.3-25.8-32.7c1.7-15.3,13.4-32.4,26.2-32.4h0.2
		c21.5,0.5,35.1,7.2,42.7,21.6c5.2,10.9,3.8,23.5-3.8,33.1C1516.1,1133.2,1507.7,1139.1,1492.8,1139.1z M1481.6,1080
		c-7,0-16.8,11.8-18.5,26c-0.9,7.9,0.5,21.7,19.4,25c14.6,2.6,25.7-0.1,32-7.8c5.8-7.4,7-17.2,3-25.7
		C1511.2,1085.8,1500.3,1080.4,1481.6,1080L1481.6,1080L1481.6,1080z"/>
	<path class="st4" d="M808.9,901.7c0,0-57.1,72.8-59.2,100.3c-2.1,27.5,126.4,139.8,205.8,184.2c0,0,7.4,40.1,13.7,49.5
		c6.4,9.4,52,26.1,52,26.1s9.2,21.4,19.9,23.2c10.7,1.9,22.6-15.9,22.6-21.4c0-5.5-13.1-30.4-13.1-30.4s11.8,21.7,18.7,20.3
		c6.7-1.4-0.3-35.2-5.6-41s-72.2-43.9-72.2-43.9l-120.7-156.4l32.5-43.9L808.9,901.7z"/>
	<path class="st3" d="M1042.5,1288.6c-0.8,0-1.5-0.1-2.2-0.2c-11.1-1.9-19.6-18.6-22.2-24c-10.4-3.8-46.1-17.6-52.4-26.9
		c-6-8.9-12.4-40.9-13.9-49.1c-37.6-21.4-88.2-58.7-132.6-98.1c-22.8-20-75.2-68.7-73.7-88.5c2.2-28.2,57.6-99.1,60-102.2
		c1.3-1.6,3.7-2,5.5-0.8c0,0,0.1,0,0.1,0.1l94.4,66.8c1.6,1.2,2,3.3,0.8,4.9l-30.9,41.8L994.1,1166c12.7,7.2,67.3,38.4,72.6,44.2
		c5.6,6.2,11.5,33.3,8.2,42.3c-0.6,2.2-2.4,3.8-4.8,4.4c-1.5,0.2-3,0.1-4.4-0.3c0.9,2.2,1.6,4.6,1.9,7.1c0,5.3-6.6,15.4-13.5,20.7
		C1050.9,1286.9,1046.8,1288.5,1042.5,1288.6z M809.7,906.8c-10.7,13.9-54.4,72.3-56.2,95.4c-0.9,11.3,27,43.9,71.2,83
		c44.6,39.5,95.4,77.1,132.8,98c0.9,0.6,1.6,1.4,1.9,2.4c2.1,10.9,8.4,40.9,13.2,48.2c4.1,6.2,33,18.3,50.2,24.6c1,0.3,1.9,1,2.2,2
		c3.5,8.1,11,20,16.9,21c2.6,0.5,5.5-1.3,7.3-2.7c6.4-4.9,10.7-13.1,10.7-15.2c0-2.9-6.6-17.2-12.7-28.9c-0.8-1.9,0.1-3.9,2.1-4.8
		c1.9-0.7,3.9,0,5,1.5c4.5,8.2,10.7,16.3,13.7,18c1.7-6-3-30.3-7.1-34.8c-3.1-3.5-39-24.7-71.3-43.1c-0.5-0.2-0.8-0.6-1-0.9
		l-121-156.3c-0.9-1.3-0.9-2.9,0-4.1l30.4-41.1L809.7,906.8z"/>
	<path class="st5" d="M955.6,751.5c-55.7,10.1-170.7,160.1-170.7,160.1l116.9,78.8c0,0,80.9-93.8,113.8-141.6
		C1048.6,800.8,1036.3,737,955.6,751.5z"/>
	<path class="st3" d="M902,994c-2.2,0-3.9-1.6-3.9-3.6c0-0.8,0.3-1.6,0.8-2.2c0.8-0.9,81.1-94.2,113.5-141.4
		c16.7-24.5,21-52.5,10.9-71.4c-6.8-12.9-20.1-20.5-38.1-22.1c-2.2-0.1-3.8-1.7-3.7-3.7c0.1-2,2-3.5,4.1-3.4c0.1,0,0.2,0,0.3,0
		c20.9,1.9,36.2,10.9,44.3,26.1c11.3,21,6.8,51.8-11.4,78.4c-32.5,47.5-113.2,141.1-114,142C904.3,993.5,903.1,994,902,994z"/>
	<path class="st3" d="M922.3,970.1c-0.8,0-1.6-0.2-2.3-0.7l-106.2-70.9c-1.7-1.2-2.1-3.4-0.9-5s3.7-2,5.5-0.8l0,0l106.2,71
		c1.7,1.2,2.1,3.4,0.9,5C924.7,969.5,923.6,970.1,922.3,970.1z"/>
	<path class="st3" d="M1162.7,571.9c3.9,25.7-54.3,33.4-74.1,33.9s-56.2,33.3-87.3,14.4c-31.1-19-57.6,61.1-159.3,25.4
		c-78.4-27.5-100-134.7-42.7-148.5c57.2-13.9,125.8,46.3,178.1,33c33.2-8.5,68-41.7,110.9-5.9
		C1120.2,550.9,1159.6,551.7,1162.7,571.9z"/>
	<path class="st4" d="M1250.7,700.7c0,0,21.4-16.4,35.2-5.2c13.8,11.1-6.8,58.6-44.3,41.6L1250.7,700.7z"/>
	<path class="st3" d="M1257.4,744.4c-6-0.1-12.1-1.5-17.4-4.1c-1.6-0.7-2.4-2.4-2.1-4.1l9.1-36.2c0.2-0.8,0.7-1.4,1.3-2
		c0.9-0.8,24.1-18.2,40.3-5.2c9.4,7.5,6.2,24.6-2.3,36.1C1278.8,739.1,1268.7,744.4,1257.4,744.4z M1246.2,735.1
		c18.5,6.8,29.6-4.6,33.6-10.2c7.8-10.6,8.2-23,3.6-26.7c-9.8-7.8-25.1,1.9-29.1,4.6L1246.2,735.1z"/>
	<path class="st4" d="M1168.5,578.6l-7.9-6.4c-2.6-2.1-6-2.7-9.3-1.6c-4.5,1.4-8.6,3.6-12,6.6c-3.3,3.5-5.1,7.9-5.2,12.5
		c-0.1,2.2,0.7,4.4,2.4,6l8.1,8.1c3.5,3.5,9.4,3.7,13.1,0.6c0.5-0.3,0.8-0.7,1.2-1.2l10.8-13.4
		C1172.7,586.5,1172.1,581.5,1168.5,578.6z"/>
	<path class="st3" d="M1151.6,610.3c-3.7,0-7.3-1.4-9.8-3.9l-8.1-8.1c-2.3-2.3-3.6-5.5-3.4-8.7c0.1-5.5,2.4-10.7,6.4-14.7
		c3.8-3.4,8.5-6,13.5-7.5c4.5-1.4,9.5-0.6,13.1,2.3l7.9,6.4c5.1,4.2,5.9,11.3,1.9,16.3l-10.8,13.4c-2.3,2.9-6,4.6-10,4.9
		L1151.6,610.3L1151.6,610.3z M1154.5,573.6c-0.6,0-1.2,0.1-1.7,0.2c-3.9,1.2-7.4,3.1-10.4,5.7c-2.7,2.9-4.1,6.4-4.2,10.2
		c-0.1,1.3,0.5,2.6,1.4,3.5l8.1,8.1c2,2,5.5,2.2,7.7,0.3c0.2-0.2,0.5-0.5,0.7-0.7l10.8-13.4c1.6-2.1,1.3-4.9-0.8-6.6l0,0l-7.9-6.4
		C1157,574.1,1155.7,573.6,1154.5,573.6z"/>
	<path class="st4" d="M1258.2,711.4c-11.4,29.8-37,60.9-76.7,49.3c-29.3-8.5-51.7-49.5-41.3-90.9c10.3-41.6,29.1-74.5,82.2-57.9
		c5.7,1.9,11.1,4.1,16.5,6.6c29.3,14.5,40.4,20.2,25.1,76.9C1262.5,700.5,1260.5,705.9,1258.2,711.4z"/>
	<path class="st3" d="M1198,766.9c-6,0-12-0.9-17.6-2.6c-29.8-8.6-55.3-49.8-43.9-95.2c5.5-21.9,14.5-48.5,36.5-59.7
		c13.5-6.8,30.5-7.2,50.8-0.8c5.8,2,11.5,4.2,17.1,6.7c15.1,7.4,25.9,12.9,31,24.4c4.9,11.3,3.7,27.6-4.1,56.5
		c-1.3,4.5-3,9.3-5,14.2l-0.8,2.1C1251.4,740.4,1229.6,766.9,1198,766.9z M1196.8,611.1c-7-0.1-13.9,1.4-20.1,4.5
		c-14.9,7.5-25.3,25.1-32.7,55c-10.1,40.4,12.1,79.1,38.7,86.7c5,1.5,10.2,2.3,15.4,2.3c34.6,0,51.7-36.9,56.4-49.5l0,0l0.8-2.2
		c1.9-4.8,3.6-9.3,4.8-13.6c14.6-54.2,5.1-59-23.1-72.9c-5.1-2.4-10.4-4.5-15.9-6.3C1213.3,612.7,1205.2,611.4,1196.8,611.1z"/>
	<path class="st3" d="M1154.3,669.9c12.1-0.9,22.6-7.9,27.4-18.1c1.6-3.4,3.5-8,6-12c15.9,27.5,54.3,51.9,71.4,61.6
		c5.5,3.3,12.5,2.9,17.6-0.8c30.9-23.6,22.6-86.5-19.3-96.2c-37.8-42.3-99.7-34.9-119.1-0.6C1117,641.9,1139.4,671.5,1154.3,669.9z"
		/>
	<path class="st4" d="M1153.4,675.2c0,0-15.3-26.2-40.3-25.5c-25,0.7-26.9,52.9,31.5,61.5L1153.4,675.2z"/>
	<path class="st3" d="M1144.6,714.9c-0.2,0-0.5,0-0.7,0c-37.1-5.6-52.6-28.3-51.2-47.2c0.9-12.5,9.1-21.1,20.3-21.5
		c27.2-0.7,43.2,26.2,43.9,27.4c0.9,1.7,0,3.9-2,4.8c-1.9,0.7-3.9,0.1-5-1.4l0,0c-0.1-0.2-14.5-24.3-36.7-23.7
		c-8,0.2-12.2,7.5-12.7,14.7c-1.2,15.8,12.3,34.9,44.7,39.7c2.1,0.5,3.4,2.3,2.9,4.3C1147.7,713.6,1146.3,714.8,1144.6,714.9z"/>
	<path class="st3" d="M611.4,721.2c-2.2,0-3.9-1.6-3.9-3.6v-16.8c0-2,1.7-3.6,3.9-3.6s3.9,1.6,3.9,3.6v16.8
		C615.3,719.6,613.6,721.2,611.4,721.2z"/>
	<path class="st3" d="M639.1,729.8h-18.5c-2.2,0-3.9-1.6-3.9-3.6c0-2,1.7-3.6,3.9-3.6H639c2.2,0,3.9,1.6,3.9,3.6
		C643,728.1,641.3,729.8,639.1,729.8z"/>
	<path class="st3" d="M611.4,755c-2.2,0-3.9-1.6-3.9-3.6v-16.8c0-2,1.7-3.6,3.9-3.6s3.9,1.6,3.9,3.6v16.8
		C615.3,753.3,613.6,755,611.4,755L611.4,755z"/>
	<path class="st3" d="M602,729.8h-18.3c-2.2,0-3.9-1.6-3.9-3.6c0-2,1.7-3.6,3.9-3.6H602c2.2,0,3.9,1.6,3.9,3.6
		C606,728.1,604.2,729.8,602,729.8z"/>
	<path class="st3" d="M551.9,1419c-2.2,0-3.9-1.6-3.9-3.6v-16.8c0-2,1.7-3.6,3.9-3.6c2.2,0,3.9,1.6,3.9,3.6v16.8
		C555.9,1417.4,554.2,1419,551.9,1419z"/>
	<path class="st3" d="M579.6,1427.5h-18.5c-2.2,0-3.9-1.6-3.9-3.6s1.7-3.6,3.9-3.6h18.5c2.2,0,3.9,1.6,3.9,3.6
		S581.8,1427.5,579.6,1427.5z"/>
	<path class="st3" d="M551.9,1452.9c-2.2,0-3.9-1.6-3.9-3.6v-16.8c0-2,1.7-3.6,3.9-3.6c2.2,0,3.9,1.6,3.9,3.6v16.7
		C555.9,1451.2,554.2,1452.8,551.9,1452.9L551.9,1452.9z"/>
	<path class="st3" d="M542.5,1427.5h-18.3c-2.2,0-3.9-1.6-3.9-3.6s1.7-3.6,3.9-3.6h18.3c2.2,0,3.9,1.6,3.9,3.6
		C546.5,1425.9,544.7,1427.5,542.5,1427.5L542.5,1427.5z"/>
	<ellipse class="st8" cx="647.5" cy="1572.7" rx="13.7" ry="12.5"/>
	<ellipse class="st9" cx="908.8" cy="2065.3" rx="22.3" ry="20.3"/>
	<text transform="matrix(1.6871 0 0 1 1915.2994 1833.7054)" class="st4 st10 st11">E-VOUCHER</text>
</g>
</svg>
