<?xml version="1.0" encoding="utf-8"?>
<!-- Generator: Adobe Illustrator 25.2.0, SVG Export Plug-In . SVG Version: 6.00 Build 0)  -->
<svg version="1.1" id="Layer_1" xmlns="http://www.w3.org/2000/svg" xmlns:xlink="http://www.w3.org/1999/xlink" x="0px" y="0px"
	 viewBox="0 0 2950 2500" style="enable-background:new 0 0 2950 2500;" xml:space="preserve">
<style type="text/css">
	.st0{opacity:0.15;}
	.st1{fill:#609176;}
	.st2{fill:#262424;}
	.st3{fill:#87BFC1;}
	.st4{fill:#DD9144;}
	.st5{fill:#FFFFFF;}
	.st6{fill:#DE9244;}
	.st7{fill:#88C0C2;}
	.st8{fill:none;}
	.st9{fill:#FFFCFA;}
	.st10{fill:#BEC8D6;}
	.st11{fill:#DAE0E7;}
	.st12{fill:#AA601D;}
	.st13{fill:#AD5E1E;}
	.st14{fill:#439191;}
</style>
<g id="Layer_1_1_">
	<g class="st0">
		<path class="st1" d="M1782.1,2094.5c-124.6,0-213-30.2-306.7-62.1c-115.3-39.4-246-83.9-473.1-83.9c-8.4,0-16.9,0.1-25.5,0.2
			c-64.9,0.9-116,5-161,8.6c-35.3,2.8-65.8,5.2-93.5,5.2c-54.1,0-93.6-9.8-136.2-33.6c-42.6-23.8-79.5-57.5-109.9-99.8
			c-27.2-37.8-49.2-82.8-65.4-133.6c-27.2-85.2-37.5-186.8-28.1-278.4c8.7-85.7,36-169.3,80.9-248.3c28.9-50.8,64.7-99,106.3-143.4
			l0.1-0.1v-0.1c63.4-184.7,138.6-324.6,223.5-416c34.9-37.7,72.2-67.8,110.8-89.5c32.2-18.1,66.3-30.9,101.1-37.8
			c20.2-4.1,40.4-6.2,59.9-6.2c90,0,163.2,42.4,248.1,91.4c102.2,59.1,218,126,398,141.9c24.6,2.2,49.6,3.3,74.2,3.3
			c185.9,0,335.5-61.9,455.7-111.7c81.6-33.8,152.1-62.9,211.4-62.9c32.9,0,60.7,8.9,85.4,27.3c64.8,48.2,83.7,144.5,88.3,216.9
			c5.1,80.2-4.6,174.7-26.1,252.7c-11.3,41.2-24.3,70.6-35.6,96.5c-18.5,41.9-33.1,75-32.3,135.7c0.9,68.6,20.7,113.4,39.8,156.7
			c18.5,42,36,81.6,33.6,138.5c-4.6,107.3-77.2,185.6-130.1,242.9c-219.1,236.5-556.5,279.8-594.4,284
			C1846.6,2092.6,1813.4,2094.5,1782.1,2094.5z"/>
		<path d="M1065.3,476.3c89.7,0,163,42.4,247.7,91.2c102.3,59.1,218,126.1,398.2,141.9c24.6,2.2,49.7,3.3,74.2,3.3
			c186,0,335.7-61.9,455.9-111.7c81.5-33.8,152-62.9,211.2-62.9c32.6,0,60.5,8.8,85,27.2c27.2,20.2,48.5,50.7,63.5,90.6
			c13.2,35.2,21.5,77.5,24.5,125.8c2.7,42.4,1.3,87.8-4.1,134.9c-4.8,41.6-12.3,82.2-22.1,117.6c-11.3,41.1-24.3,70.5-35.6,96.4
			c-18.5,41.9-33.1,75.1-32.3,135.9c0.9,68.7,20.7,113.5,39.8,157c18.5,41.9,36,81.5,33.4,138.3c-2.1,47.5-17.3,93.1-46.4,139.4
			c-25.2,39.9-56.2,73.5-83.6,103c-50.4,54.3-111.1,102.7-180.5,143.8c-56.4,33.4-119,62.2-185.7,85.6
			c-116.4,40.7-210.1,52.5-227.7,54.4c-34.4,3.8-67.6,5.7-98.9,5.7c-56.9,0-109-6-164.2-18.8c-49.1-11.5-94.4-26.9-142.3-43.3
			c-115.3-39.4-246.1-83.9-473.2-83.9c-8.4,0-16.9,0.1-25.5,0.2c-64.9,0.9-116,5-161.1,8.6c-35.3,2.8-65.8,5.2-93.5,5.2
			c-54,0-93.5-9.8-135.9-33.6c-42.5-23.8-79.4-57.3-109.8-99.7c-27.2-37.8-49.1-82.8-65.2-133.4c-27.2-85.2-37.4-186.6-28.1-278.2
			c8.7-85.7,36-169.1,80.8-248.1c28.8-50.8,64.5-99,106.2-143.4l0.2-0.2l0.1-0.2c33.4-97.2,70.5-182.6,109.8-254.1
			c35.4-64,73.6-118.3,113.5-161.5c34.9-37.7,72.2-67.8,110.5-89.4c32.2-18.1,66.1-30.8,101-37.8
			C1025.7,478.4,1045.8,476.3,1065.3,476.3 M1065.3,475.2c-19.2,0-39.1,2-60,6.2C879.6,506.6,710.5,615,569.5,1024.8
			c-54.2,57.6-167.2,194.5-187.4,392c-16.4,160.7,23.5,411.5,203.6,512.4c46.7,26.1,87.5,33.7,136.5,33.7
			c62.2,0,137.6-12.2,254.6-13.8c8.6-0.1,17.1-0.2,25.5-0.2c412.9,0,502.8,146,779.8,146c30.5,0,63.3-1.7,99-5.7
			c34.8-3.8,374.9-46.7,594.7-284.2c54.1-58.4,125.7-135.7,130.4-243.2c5-115.3-71.5-159.7-73.4-295.3
			c-1.3-98.8,38.7-125.4,67.9-232.1c36.7-134,53.8-383.8-62.5-470.3c-26-19.4-54.4-27.4-85.8-27.4c-146.2,0-354.2,174.6-667.1,174.6
			c-24,0-48.8-1-74.2-3.3C1380.6,679.3,1262.8,475.2,1065.3,475.2L1065.3,475.2z"/>
	</g>
</g>
<path class="st2" d="M2627.1,1331.8c-2.2,0-3.9-1.8-3.9-3.9v-11.6c0-2.2,1.8-3.9,3.9-3.9c2.2,0,3.9,1.8,3.9,3.9v11.6
	C2631.1,1330.1,2629.3,1331.8,2627.1,1331.8z"/>
<path class="st2" d="M2644.6,1337.7H2633c-2.2,0-3.9-1.8-3.9-3.9c0-2.2,1.8-3.9,3.9-3.9h11.6c2.2,0,3.9,1.8,3.9,3.9
	C2648.5,1336,2646.8,1337.7,2644.6,1337.7z"/>
<path class="st2" d="M2627.1,1355.2c-2.2,0-3.9-1.8-3.9-3.9v-11.6c0-2.2,1.8-3.9,3.9-3.9c2.2,0,3.9,1.8,3.9,3.9v11.6
	C2631.1,1353.5,2629.3,1355.2,2627.1,1355.2z"/>
<path class="st2" d="M2621.2,1337.7h-11.6c-2.2,0-3.9-1.8-3.9-3.9c0-2.2,1.8-3.9,3.9-3.9h11.6c2.2,0,3.9,1.8,3.9,3.9
	C2625.1,1336,2623.4,1337.7,2621.2,1337.7z"/>
<path class="st2" d="M1782.9,706.1c-2.2,0-3.9-1.8-3.9-3.9v-21.9c0-2.2,1.8-3.9,3.9-3.9c2.2,0,3.9,1.8,3.9,3.9v21.9
	C1786.8,704.3,1785.1,706.1,1782.9,706.1z"/>
<path class="st2" d="M1816.1,717.3h-21.9c-2.2,0-3.9-1.8-3.9-3.9c0-2.2,1.8-3.9,3.9-3.9h21.9c2.2,0,3.9,1.8,3.9,3.9
	C1820,715.5,1818.3,717.3,1816.1,717.3z"/>
<path class="st2" d="M1782.9,750.4c-2.2,0-3.9-1.8-3.9-3.9v-21.9c0-2.2,1.8-3.9,3.9-3.9c2.2,0,3.9,1.8,3.9,3.9v21.9
	C1786.8,748.7,1785.1,750.4,1782.9,750.4z"/>
<path class="st2" d="M1771.7,717.3h-21.9c-2.2,0-3.9-1.8-3.9-3.9c0-2.2,1.8-3.9,3.9-3.9h21.9c2.2,0,3.9,1.8,3.9,3.9
	C1775.6,715.5,1773.9,717.3,1771.7,717.3z"/>
<path class="st2" d="M1150,1089.6c-2.2,0-3.9-1.8-3.9-3.9v-18.2c0-2.2,1.8-3.9,3.9-3.9c2.2,0,3.9,1.8,3.9,3.9v18.2
	C1154,1087.8,1152.2,1089.6,1150,1089.6z"/>
<path class="st2" d="M1177.4,1098.8h-18.1c-2.2,0-3.9-1.8-3.9-3.9s1.8-3.9,3.9-3.9h18.2c2.2,0,3.9,1.8,3.9,3.9
	C1181.3,1097,1179.6,1098.8,1177.4,1098.8z"/>
<path class="st2" d="M1150,1126.1c-2.2,0-3.9-1.8-3.9-3.9v-18.1c0-2.2,1.8-3.9,3.9-3.9c2.2,0,3.9,1.8,3.9,3.9v18.2
	C1153.9,1124.4,1152.2,1126.1,1150,1126.1z"/>
<path class="st2" d="M1140.8,1098.8h-18.2c-2.2,0-3.9-1.8-3.9-3.9s1.8-3.9,3.9-3.9h18.2c2.3,0,4.1,1.6,4.1,3.9
	c0,2.3-1.8,4.1-4.1,4.1C1140.8,1099,1140.8,1099,1140.8,1098.8z"/>
<circle class="st3" cx="1194.2" cy="515.3" r="13.5"/>
<circle class="st3" cx="2643.5" cy="964.8" r="28.5"/>
<circle class="st4" cx="2642.6" cy="1875.5" r="15.5"/>
<circle class="st4" cx="1164.9" cy="1653.7" r="11"/>
<path class="st5" d="M1318.4,955.6h1188.9c10.6,0,19.1,8.6,19.1,19.1v858.9c0,10.6-8.6,19.1-19.1,19.1H1318.4
	c-10.6,0-19.1-8.6-19.1-19.1V974.7C1299.3,964.1,1307.8,955.6,1318.4,955.6z"/>
<path class="st2" d="M2507.3,1856.4H1318.4c-12.6,0-22.8-10.2-22.8-22.8V974.7c0-12.6,10.2-22.8,22.8-22.8h1188.9
	c12.6,0,22.8,10.2,22.8,22.8v858.9C2530.1,1846.2,2519.9,1856.4,2507.3,1856.4z M1318.4,959.2c-8.5,0-15.4,6.9-15.5,15.5v858.9
	c0,8.5,6.9,15.4,15.5,15.5h1188.9c8.5,0,15.4-6.9,15.5-15.5V974.7c0-8.5-6.9-15.4-15.5-15.5H1318.4z"/>
<path class="st6" d="M2062.9,1172.8h336.2c9.1,0,16.4,7.3,16.4,16.4v336.2c0,9.1-7.3,16.4-16.4,16.4h-336.2
	c-9.1,0-16.4-7.3-16.4-16.4v-336.2C2046.5,1180.2,2053.9,1172.8,2062.9,1172.8z"/>
<path class="st7" d="M1458.6,1105.4h471c9.1,0,16.4,7.3,16.4,16.4v471c0,9.1-7.3,16.4-16.4,16.4h-471c-9.1,0-16.4-7.3-16.4-16.4
	v-471C1442.2,1112.8,1449.6,1105.4,1458.6,1105.4z"/>
<line class="st8" x1="2073.5" y1="1199.8" x2="2388.6" y2="1514.9"/>
<line class="st8" x1="2215.6" y1="1372.7" x2="2073.5" y2="1514.9"/>
<line class="st8" x1="2388.6" y1="1199.8" x2="2242.6" y2="1345.7"/>
<path class="st6" d="M1450.2,1686.8h706.2c8.5,0,15.4,6.9,15.4,15.4l0,0c0,8.5-6.9,15.4-15.4,15.4h-706.2c-8.5,0-15.4-6.9-15.4-15.4
	l0,0C1434.8,1693.6,1441.7,1686.8,1450.2,1686.8z"/>
<path class="st6" d="M1450.2,1742.7h706.2c8.5,0,15.4,6.9,15.4,15.4l0,0c0,8.5-6.9,15.4-15.4,15.4h-706.2c-8.5,0-15.4-6.9-15.4-15.4
	l0,0C1434.8,1749.5,1441.7,1742.7,1450.2,1742.7z"/>
<path class="st7" d="M2231,1686.8h144.5c8.5,0,15.4,6.9,15.4,15.4l0,0c0,8.5-6.9,15.4-15.4,15.4H2231c-8.5,0-15.4-6.9-15.4-15.4l0,0
	C2215.6,1693.6,2222.5,1686.8,2231,1686.8z"/>
<path class="st7" d="M2231,1742.7h144.5c8.5,0,15.4,6.9,15.4,15.4l0,0c0,8.5-6.9,15.4-15.4,15.4H2231c-8.5,0-15.4-6.9-15.4-15.4l0,0
	C2215.6,1749.5,2222.5,1742.7,2231,1742.7z"/>
<path class="st5" d="M1319.4,895.2h1187c11.1,0,20.1,9,20.1,20.1v85.2c0,11.1-9,20.1-20.1,20.1h-1187c-11.1,0-20.1-9-20.1-20.1
	v-85.2C1299.3,904.2,1308.3,895.2,1319.4,895.2z"/>
<path class="st2" d="M2506.3,1024.2h-1187c-13.1,0-23.8-10.7-23.8-23.8v-85.2c0-13.1,10.7-23.7,23.8-23.7h1187
	c13.1,0,23.8,10.7,23.8,23.8v85.1C2530.1,1013.6,2519.5,1024.2,2506.3,1024.2z M1319.4,898.8c-9.1,0-16.4,7.4-16.4,16.4v85.1
	c0,9.1,7.3,16.5,16.4,16.5l0,0h1187c9.1,0,16.4-7.4,16.4-16.4v-85.2c0-9.1-7.4-16.4-16.4-16.4L1319.4,898.8L1319.4,898.8z"/>
<circle class="st7" cx="1390.2" cy="957.8" r="26.7"/>
<circle class="st7" cx="1509.7" cy="957.8" r="26.7"/>
<circle class="st6" cx="1629.1" cy="957.8" r="26.7"/>
<polygon class="st5" points="1049.7,1773.8 1070.6,1890.8 1111.4,1887.2 1100.4,1760.2 "/>
<path class="st2" d="M1070.6,1894.8c-1.9,0-3.5-1.4-3.9-3.2l-20.8-117c-0.4-2,0.9-3.9,2.9-4.5l50.7-13.5c2.1-0.6,4.2,0.7,4.8,2.8
	c0.1,0.2,0.1,0.5,0.1,0.7l11,127c0.2,2.2-1.4,4.1-3.6,4.2l-40.8,3.6H1070.6L1070.6,1894.8z M1054.2,1776.7l19.6,109.9l33.4-2.9
	l-10.2-118.4L1054.2,1776.7z"/>
<path class="st6" d="M1226.5,1999.5c-1.1-2.6-2.7-5-4.8-7c-20.7-19.9-69.8-71.1-91.2-126.5l-66.6-1.4c0,0-21.7,84.2-20,155.2
	l179.6,2.4l3.8-8.5C1228.6,2009,1228.4,2004,1226.5,1999.5z"/>
<path class="st5" d="M1226.5,1999.5l-182.5-2.3c-0.3,7.6-0.4,15.2-0.2,22.6l179.6,2.4l3.8-8.5
	C1228.6,2009,1228.4,2004,1226.5,1999.5z"/>
<path class="st2" d="M1223.4,2026.1h-0.1l-179.6-2.4c-2.1-0.1-3.7-1.7-3.8-3.8c-0.2-7.3-0.1-15,0.2-22.9c0.1-2.1,1.8-3.8,3.9-3.8
	l0,0l182.5,2.3c1.6,0,2.9,1,3.6,2.4c2.3,5.4,2.6,11.4,0.8,16.9l-3.8,8.5C1226.5,2025,1225,2026.1,1223.4,2026.1z M1047.6,2016
	l172.9,2.2l2.9-5.7c1-2.9,1.1-6.1,0.3-9.1l-175.9-2.2C1047.6,2006.3,1047.5,2011.2,1047.6,2016L1047.6,2016z"/>
<path class="st7" d="M1118.7,1772.5c-27.6,7.6-55.7,13.4-84.1,17.1c-15.1-46.4-44.4-138.3-48.3-163.6c-5.3-34.5,8.8-120.2,8.8-120.2
	s-116.3-276.6-111.1-351.4c5.2-74.8,59.8-177.3,135.6-163.2c4.1,0.6,8.1,1.5,12,2.7c54.6,19.6,60.5,250.7,66.8,466
	c0.9,30.2,1.8,60.2,2.8,89.1C1104.3,1638.8,1108.8,1719.5,1118.7,1772.5z"/>
<path class="st2" d="M1054.8,1746.6c-1.8,0-3.4-1.2-3.8-3l-26.6-108.9c-2.2-8.9-3.2-18.1-2.9-27.2l2.4-92c0.2-9.1-0.8-18.1-3.1-26.9
	L943,1194.7c-0.6-2.1,0.5-4.3,2.6-4.9c2.1-0.6,4.3,0.5,4.9,2.6c0,0.1,0.1,0.2,0.1,0.3l77.7,293.9c2.5,9.5,3.7,19.3,3.4,29.1l-2.4,92
	c-0.2,8.5,0.7,16.9,2.7,25.2l26.6,108.9c0.5,2.1-0.8,4.2-2.9,4.7C1055.4,1746.6,1055.1,1746.6,1054.8,1746.6z"/>
<path class="st5" d="M1101.1,1549.1c-21.2-0.4-38.3-20.2-38.3-44.7c0-23.3,15.7-42.5,35.5-44.5
	C1099.2,1490.2,1100.1,1520.1,1101.1,1549.1z"/>
<path class="st6" d="M1116.6,1792l-92.9,4c-6.6,0.5-12.3-4.4-12.9-11l-2.7-55.9c-0.1-6.5,5.1-11.9,11.7-12c0,0,0.1,0,0.1,0l92.8-4
	c6.6-0.5,12.3,4.4,12.9,11l2.7,55.9C1128.4,1786.6,1123.2,1792,1116.6,1792C1116.6,1792,1116.6,1792,1116.6,1792z"/>
<polygon class="st5" points="723.4,1763.4 723.8,1882 765.4,1884.5 776.6,1757.6 "/>
<path class="st2" d="M765.4,1888.5h-0.3l-41.6-2.6c-2.1-0.1-3.7-1.8-3.7-3.9l-0.4-118.6c0-2,1.5-3.7,3.5-3.9l53.2-5.8
	c2.2-0.2,4.1,1.3,4.3,3.5c0,0.3,0,0.5,0,0.8l-11.2,127C769.1,1886.9,767.4,1888.5,765.4,1888.5z M727.8,1878.3l34.1,2.1l10.4-118.4
	l-44.9,4.9L727.8,1878.3z"/>
<path class="st6" d="M876.5,1999.5c-1.1-2.7-2.8-5-4.9-7c-21-19.9-70.8-71.1-92.6-126.5l-67.7-1.4c0,0-21.9,84.2-20.4,155.2
	l182.4,2.4l3.8-8.5C878.7,2009,878.5,2004,876.5,1999.5z"/>
<path class="st5" d="M876.5,1999.5l-185.3-2.3c-0.3,7.6-0.4,15.2-0.2,22.6l182.4,2.4l3.8-8.5C878.7,2009,878.5,2004,876.5,1999.5z"
	/>
<path class="st2" d="M873.4,2026.1h-0.1l-182.4-2.4c-2.1-0.1-3.7-1.7-3.8-3.8c-0.2-7.3-0.1-15,0.2-22.9c0.1-2.1,1.9-3.8,4-3.8
	l185.3,2.3c1.5,0,2.9,0.9,3.5,2.4c2.3,5.4,2.6,11.4,0.8,16.9l-3.9,8.5C876.6,2025.1,875.1,2026.1,873.4,2026.1z M694.9,2016
	l175.7,2.2l2.9-5.7c1-2.9,1.1-6.1,0.3-9l-178.7-2.3C694.9,2006.3,694.8,2011.2,694.9,2016L694.9,2016z"/>
<path class="st7" d="M971.8,1155.2l-29.8,45.7c0,0-41.2,125.7-79.9,269.5c-7.7,28.5-15.3,57.6-22.4,86.7
	c-19.7,80.1-36.1,159.2-42.1,220c-29.2,0.7-58.3-0.6-87.3-3.8c-1.7-48.5-4.4-144.2-1-169.7c4.6-34.5,42.6-113.9,42.6-113.9
	s-35.8-295.4-9.4-366.3c26.4-71,108.8-156.7,179.2-124.7c3.8,1.7,7.5,3.6,11,5.5C988.5,1035.6,1005.6,1103.4,971.8,1155.2z"/>
<path class="st2" d="M780,1210.9c-2.2,0-3.9-1.7-3.9-3.9c0-1.8,1.3-3.4,3.1-3.8l10.6-2.4c13.1-2.9,23.6-12.9,27.2-25.8l14.3-50.7
	c0.6-2.1,2.8-3.2,4.9-2.6c2,0.6,3.2,2.7,2.6,4.7l-14.3,50.7c-4.4,15.7-17.1,27.8-33.1,31.4l-10.6,2.4
	C780.6,1210.9,780.3,1210.9,780,1210.9z"/>
<path class="st2" d="M744.4,1730.2c-2.2,0-3.9-1.8-3.9-3.9v-96.9c0-24.6,4-49.1,11.8-72.5l11.3-33.8c7.6-22.6,11.4-46.2,11.4-70
	v-223.6c0-15.9,1.7-31.8,5-47.3l15.5-73.4c0.6-2.1,2.7-3.3,4.8-2.8c1.9,0.5,3.1,2.4,2.9,4.3l-15.5,73.4c-3.1,15-4.7,30.3-4.7,45.7
	V1453c0,24.7-4,49.1-11.8,72.5l-11.3,33.8c-7.6,22.6-11.4,46.2-11.4,70v96.9C748.3,1728.4,746.6,1730.2,744.4,1730.2z"/>
<path class="st2" d="M921.4,1270.1c-2.2,0-3.9-1.8-3.9-3.9c0-0.4,0.1-0.8,0.2-1.2c12.4-40,20.6-65.2,20.7-65.4
	c0.1-0.3,0.2-0.6,0.4-0.9l29.8-45.7c8.7-13.3,14.2-28.4,16-44.1c0.2-2.2,2.2-3.7,4.4-3.5c2.2,0.2,3.7,2.2,3.5,4.4
	c-1.9,17-7.8,33.3-17.2,47.5l-29.5,45.2c-1.2,3.7-9.1,27.9-20.5,64.8C924.7,1269.1,923.1,1270.2,921.4,1270.1z"/>
<path class="st5" d="M862.1,1470.4c-7.7,28.5-15.3,57.6-22.4,86.7c-0.9-0.1-1.8-0.3-2.6-0.4c-21.3-4.5-33.6-27.7-27.6-51.7
	c6-24.1,28.2-39.9,49.5-35.4C860,1469.8,861.1,1470,862.1,1470.4z"/>
<path class="st6" d="M709.7,1710.3h96.4c6.3,0,11.5,5.1,11.5,11.5v55.9c0,6.3-5.1,11.5-11.5,11.5h-96.4c-6.3,0-11.5-5.1-11.5-11.5
	v-55.9C698.2,1715.4,703.3,1710.3,709.7,1710.3z"/>
<path class="st5" d="M1273.7,845.5c0,0,25.3,4.4,44.4-41.8l-57.5-30.3L1273.7,845.5z"/>
<path class="st2" d="M1275.6,849.6c-0.8,0-1.7,0-2.5-0.2c-1.6-0.3-2.8-1.5-3.1-3.1l-13.1-72.1c-0.4-2.1,1-4.2,3.1-4.6
	c0.9-0.2,1.8,0,2.5,0.4l57.5,30.3c1.8,0.9,2.6,3.1,1.8,5C1305,845.9,1283,849.6,1275.6,849.6z M1265.9,780.6l11.1,61.1
	c6.3-0.5,22.3-5,36.1-36.2L1265.9,780.6z"/>
<path class="st3" d="M1300.7,589.7l138,27.5c2.4,0.5,4,2.9,3.5,5.3l-39.3,196.8c-0.5,2.4-2.9,4-5.3,3.5l0,0l-137.9-27.5
	c-2.4-0.5-4-2.9-3.5-5.3l0,0l39.3-196.8C1295.8,590.8,1298.2,589.3,1300.7,589.7z"/>
<path class="st5" d="M1426.3,637.6l-3.7,18.8l-28.6,143.2c-0.5,2.4-2.9,4-5.3,3.5l-113.1-22.6c-2.4-0.5-4-2.9-3.5-5.3l28.6-143.2
	l3.8-18.8c0.5-2.4,2.9-4,5.3-3.5l113.1,22.6C1425.2,632.8,1426.8,635.1,1426.3,637.6z"/>
<path class="st2" d="M1389.5,807.1c-0.6,0-1.1-0.1-1.7-0.2l-113.1-22.6c-4.6-0.9-7.5-5.3-6.6-9.9l32.4-162c0.9-4.6,5.4-7.5,9.9-6.6
	l113.1,22.6c4.6,0.9,7.5,5.3,6.6,9.9l-32.4,162C1397,804.2,1393.5,807.1,1389.5,807.1z M1308.7,613.5c-0.1,0-0.2,0-0.3,0.1
	c-0.1,0.1-0.2,0.2-0.3,0.4l-3.8,18.8l-28.6,143.2c0,0.2,0,0.3,0.1,0.4c0.1,0.1,0.2,0.2,0.4,0.3l113.1,22.6c0.3,0.1,0.6-0.1,0.7-0.5
	l32.4-162l0,0c0-0.2,0-0.3-0.1-0.4c-0.1-0.1-0.2-0.2-0.4-0.3l-113.1-22.6L1308.7,613.5L1308.7,613.5z"/>
<path class="st5" d="M1426.3,637.6l-3.7,18.8l-122-24.4l3.8-18.8c0.5-2.4,2.9-4,5.3-3.5l113.1,22.6
	C1425.2,632.8,1426.8,635.1,1426.3,637.6z"/>
<path class="st2" d="M1422.5,660.2c-0.3,0-0.5,0-0.8,0l-122-24.4c-2.1-0.4-3.5-2.4-3.1-4.6c0,0,0,0,0,0l3.8-18.8
	c0.9-4.6,5.4-7.5,9.9-6.6l113.1,22.6c4.6,0.9,7.5,5.3,6.6,9.9l-3.7,18.8C1425.9,658.9,1424.3,660.2,1422.5,660.2z M1305.1,628.9
	l114.3,22.8l3-15l0,0c0-0.2,0-0.3-0.1-0.4c-0.1-0.1-0.2-0.2-0.4-0.3l-113.1-22.6c-0.2,0-0.3,0-0.4,0.1c-0.1,0.1-0.2,0.2-0.3,0.4
	L1305.1,628.9z"/>
<path class="st5" d="M1266.9,766.1c0,0,31.6,54.1,6.8,79.4c0,0-32.3,76.6-69,114.4c-15.8,16.2-41.8,16.4-58,0.6
	c-0.3-0.3-0.6-0.6-0.9-1c-19-19.7-40.4-46.1-61.1-74.9c-55.3-77-89.2-139.8-73.3-168.7c21.6-39.3,44.8-44.4,68-30.5L1194.3,845
	l39.2-28.7c0,0,1.1-51.7,6.8-60.6c5.7-8.9,43.9-30.3,47-31.4c3.1-1.1,6.8,2.1,4.7,12C1289.9,746.3,1266.9,766.1,1266.9,766.1z"/>
<path class="st2" d="M1175.5,976.2L1175.5,976.2c-12.3,0-24-5-32.5-13.9c-18.9-19.6-40.1-45.7-61.4-75.4
	c-65.1-90.7-88.5-145.7-73.5-172.9c12-21.9,24.9-34.4,39.4-38.3c10.8-2.9,22.2-0.8,34.1,6.3c0.5,0.3,0.8,0.6,1.2,1.1l112.6,156.3
	l34.5-25.2c0.3-12.1,1.7-51.9,7.4-60.7c6.5-10,45.2-31.6,49.1-32.9c2.5-0.9,5.3-0.3,7.2,1.5c2.2,2,4.4,6.2,2.6,15.1
	c-1.9,9.2-17.7,24.1-24,29.8c6.3,11.8,27.8,56.6,5.2,80.8c-3.5,8.1-34.1,78.5-69.6,114.9C1199.2,971.3,1187.6,976.2,1175.5,976.2z
	 M1056.9,682.4c-2.6,0-5.1,0.3-7.6,1c-12.1,3.3-23.8,14.9-34.5,34.5c-13.1,23.9,10.8,77.7,73,164.6c21.1,29.4,42.1,55.1,60.7,74.5
	c7,7.3,16.7,11.4,26.8,11.4l0,0c9.9,0,19.5-4,26.4-11.1c35.8-36.8,67.9-112.4,68.2-113.2c0.2-0.5,0.5-0.9,0.8-1.2
	c22.4-22.9-7.1-74.2-7.4-74.7c-1-1.6-0.6-3.7,0.8-4.9c8.5-7.4,22.5-21.4,23.8-27.6c1-4.7,0.4-6.7,0-7.4
	c-5.1,2.3-39.8,22.1-44.6,29.6c-3.7,5.8-5.8,39-6.2,58.6c0,1.2-0.6,2.4-1.6,3.1l-39.2,28.7c-1.7,1.3-4.2,0.9-5.5-0.9c0,0,0,0,0,0
	l-114.4-158.8C1069.7,684.4,1063.2,682.4,1056.9,682.4z"/>
<path class="st2" d="M1175.9,918.2c-2.2,0-3.9-1.7-3.9-3.9c0-0.3,0-0.7,0.1-1l18.4-69.3c0.6-2.1,2.8-3.2,4.9-2.6
	c2,0.6,3.1,2.6,2.7,4.6l-18.4,69.3C1179.2,917,1177.6,918.2,1175.9,918.2z"/>
<path class="st6" d="M1050.9,652.3L1050.9,652.3c-20.8-5.9-40.1,2.2-55.5,32.4c-18.3,35.7,25.9,128.9,81.3,205.9l106.5-78
	C1154.6,770.3,1082.2,666.6,1050.9,652.3z"/>
<path class="st2" d="M1072,878.4c-2.2,0-3.9-1.7-3.9-3.9c0-1.2,0.6-2.4,1.6-3.2l95.1-70.5c1.7-1.3,4.2-0.9,5.5,0.8
	c1.3,1.7,0.9,4.2-0.8,5.5c0,0,0,0,0,0l-95.1,70.5C1073.7,878.2,1072.9,878.4,1072,878.4z"/>
<path class="st6" d="M927.5,607.5c49.9,0,135.5,50.8,135.5,50.8l2.7,32.8c0,0,22.4,62,22.4,85.3c0,23.4-39.8,76.9-39.8,76.9
	s28.5,183.5,39.9,273.3c0,0-135.1,86.1-376.9,8.2l86.1-286.6l-19.2-186.5C778.2,661.8,861.3,607.5,927.5,607.5z"/>
<path class="st2" d="M1058.3,843.2c-2.2,0-3.9-1.8-3.9-3.9c0-0.8,0.2-1.5,0.7-2.2c18.6-27.6,29.3-49.7,29.3-60.6
	c0-22.4-21.9-83.4-22.2-84c-0.1-0.3-0.2-0.7-0.2-1l-1.6-18.7c-0.2-2.2,1.4-4.1,3.6-4.2c2.2-0.2,4.1,1.4,4.2,3.6l1.6,18.2
	c2.3,6.3,22.5,63.3,22.5,86.2c0,16.1-16.6,44.3-30.6,65C1060.9,842.6,1059.6,843.2,1058.3,843.2z"/>
<path class="st2" d="M918,1144.4c-21.2,0-41.4-1.3-59.3-3c-39.7-3.9-79.1-11.1-117.7-21.5c-2.1-0.6-3.3-2.8-2.7-4.9
	c0.6-2.1,2.8-3.3,4.9-2.7c0,0,0,0,0,0c38.1,10.3,77.1,17.4,116.4,21.2c60,5.9,144.9,5.9,209-27.6c1.9-1,4.3-0.3,5.3,1.7
	c1,1.9,0.3,4.3-1.7,5.3C1025.7,1137.2,968.9,1144.4,918,1144.4z"/>
<path class="st5" d="M924.2,589.1c28,1.8,43.9,20.4,45.8,35.7c1.9,15.3-9.2,29.3-19.5,32.4c0,0-10.4-29-18.3-29
	s-13.7,33.6-13.7,33.6s-37.6,0-47.6-32.1C863.8,607.6,891.5,587,924.2,589.1z"/>
<path class="st2" d="M918.4,665.8c-0.4,0-40.6-0.4-51.4-34.8c-2.8-8.9-0.9-18.1,5.4-26.1c10.4-13.3,30.9-21,52-19.6
	c29.3,1.9,47.3,21.6,49.4,39.2c2.1,17.1-10.1,32.9-22.3,36.6c-2,0.6-4.1-0.5-4.8-2.4c-4.6-12.9-11.4-25.2-14.5-26.4
	c-2.9,1.9-7.5,15.8-10,30.3C921.9,664.4,920.3,665.8,918.4,665.8z M919.7,593c-16.9,0-33,6.5-41.1,16.8c-3.3,4.2-6.6,10.8-4.1,18.9
	c7.4,23.7,31.8,28.2,40.6,29.1c3-16,8.3-33.4,17-33.4c8.3,0,16,15.9,20.6,27.7c7.3-4.2,14.8-14.7,13.4-26.6
	c-1.7-14.4-17.1-30.6-42.2-32.3l0,0C922.5,593,921.1,592.9,919.7,593L919.7,593z"/>
<path class="st5" d="M942.5,607.5c0,0-1,9.6-13,14.2c-12.5,0-24.4-5.2-33.1-14.2l3.3-60.9l11.4,2.4l27.7,5.8l2.9,43.9L942.5,607.5z"
	/>
<path class="st2" d="M928.8,625.6c-13.3-0.2-26-5.8-35.2-15.5c-0.7-0.8-1.1-1.8-1.1-2.9l3.3-60.9c0.1-2.2,2-3.8,4.1-3.7
	c0.2,0,0.4,0,0.6,0.1l39.2,8.2c1.7,0.3,3,1.8,3.1,3.6l3.5,52.7c0,0.2,0,0.4,0,0.7c0,0.5-1.4,12.1-15.5,17.5
	c-0.4,0.1-0.8,0.2-1.2,0.3L928.8,625.6L928.8,625.6z M900.5,606c7.6,7.3,17.7,11.5,28.2,11.8c8-3.3,9.5-9.1,9.8-10.5l-3.3-49.3
	l-31.7-6.6L900.5,606z"/>
<path class="st2" d="M941.9,598.6c-33.3-3.3-36.1-45.6-36.1-45.6c1.7-1.4,3.5-2.8,5.3-4l27.7,5.8L941.9,598.6z"/>
<path class="st2" d="M859.4,406.1c20.9,7.3,6.1,50.8-0.6,64.7s5.4,52.1-20.2,66.4c-25.5,14.2,25.9,63.9-37.4,120.7
	C752.4,701.6,663.1,675,673,629.6c9.8-45.3,80.1-69.5,88.6-111c5.4-26.4-7.5-63.6,35-79.4C828.3,427.4,842.9,400.3,859.4,406.1z"/>
<path class="st5" d="M970.5,514.5c0,0,12.2-18,25.2-11.9c13,6.1,8.7,49.7-23.5,43.8L970.5,514.5z"/>
<path class="st2" d="M978,550.8c-2.2,0-4.3-0.2-6.5-0.6c-1.8-0.4-3-1.9-3.1-3.6l-1.7-31.8c0-0.8,0.2-1.7,0.7-2.4
	c0.6-0.8,14.2-20.8,30.1-13.3c9.3,4.4,11,19.6,7.3,31.2C1001.3,540.7,992.6,550.8,978,550.8z M975.9,542.9c14.4,1.1,19.6-10,21.2-15
	c3.1-9.9,0.9-19.8-3.1-21.7c-8.3-3.9-17,6.3-19.6,9.6L975.9,542.9z"/>
<path class="st5" d="M879.9,431.8l-7.4-3.5c-2.4-1.1-5.2-0.9-7.3,0.6c-3.1,2.1-5.6,4.8-7.4,8c-1.7,3.6-2,7.6-1,11.4
	c0.4,1.9,1.6,3.5,3.2,4.5l8,5c3.4,2.1,7.9,1.1,10-2.3c0.2-0.4,0.5-0.8,0.6-1.3l5-13.3C884.9,437.4,883.3,433.4,879.9,431.8z"/>
<path class="st5" d="M978.7,521.7c-1.5,26.9-13.4,58-46,57.2c-24-0.6-50.5-29.5-52.5-65.8s4.3-67.5,48.1-65.4
	c4.7,0.3,9.3,0.9,13.9,1.8c25.4,5.6,35.1,7.8,37,57.8C979.3,511.7,979,516.6,978.7,521.7z"/>
<path class="st2" d="M934,582.8h-1.5c-24.8-0.7-54-29.4-56.3-69.6c-1.1-19.4-0.5-43.4,13.6-57.6c8.7-8.7,21.6-12.7,38.6-11.9
	c4.9,0.3,9.8,1,14.6,1.9c28.2,6.3,38.1,11,40.1,61.5c0.2,4-0.1,8.3-0.4,12.8l-0.1,1.9C981,551.5,967.3,582.8,934,582.8z M924,451.5
	c-12.7,0-22.1,3.1-28.5,9.7c-9.2,9.2-12.8,25.7-11.4,51.7c1.9,34.9,27.3,61.6,48.6,62.2c36.2,1,41.3-40.7,42-53.5l0,0l0.1-2
	c0.3-4.3,0.5-8.4,0.4-12.1c-1.8-47-9.2-48.7-33.9-54.2c-4.4-0.9-8.8-1.5-13.3-1.8C926.6,451.5,925.3,451.5,924,451.5z"/>
<path class="st5" d="M879.1,426l-7.4-3.5c-2.4-1.1-5.1-0.9-7.3,0.6c-3,2.1-5.5,4.8-7.4,8c-1.6,3.5-2,7.5-1,11.3
	c0.4,1.8,1.5,3.4,3.1,4.4l7.9,4.9c3.4,2.1,7.8,1.1,9.9-2.3c0.3-0.4,0.5-0.8,0.6-1.3l5-13.2C884,431.5,882.4,427.6,879.1,426z"/>
<path class="st2" d="M890.7,509.9c8.8-3.4,15.1-11.4,16.3-20.8c0.5-3.1,0.8-7.3,1.7-11.1c18.4,19.2,53,30.9,68.2,35.3
	c4.8,1.5,10.1-0.3,13.1-4.4c17.6-26.1-3.4-75.9-37.2-75c-38.4-26.6-83.2-7.3-89.6,25.1C856.1,494.9,879.9,514.4,890.7,509.9z"/>
<path class="st6" d="M927.2,406.7L927.2,406.7c39.5,0,71.5,32,71.5,71.5v7.1c0,2.9-2.3,5.2-5.2,5.2H860.9c-2.9,0-5.2-2.3-5.2-5.2
	v-7.1C855.7,438.8,887.7,406.7,927.2,406.7z"/>
<path class="st6" d="M949.2,490.6h74.7C1024,490.6,988.7,446.1,949.2,490.6z"/>
<path class="st2" d="M953.2,490.3c-2.2,0-3.9-1.7-3.9-3.9c0-1.1,0.4-2.1,1.2-2.8c12.2-12,25.2-17.6,38.8-16.6
	c2.2,0.2,3.8,2.1,3.6,4.2c-0.2,2.2-2.1,3.8-4.2,3.6c-11.2-0.8-22.2,4-32.7,14.3C955.2,489.9,954.3,490.3,953.2,490.3z"/>
<path class="st2" d="M974.8,476.5c-1.9,0-3.5-1.3-3.8-3.1c-10.3-51.4-57.8-53.7-59.8-53.7c-2.2-0.1-3.9-1.9-3.8-4c0,0,0,0,0,0
	c0.1-2.1,1.9-3.8,4-3.8c0.5,0,55.6,2.4,67.1,60c0.4,2.1-1,4.2-3.1,4.6c0,0,0,0,0,0C975.3,476.5,975,476.5,974.8,476.5z"/>
<path class="st5" d="M891.3,514.5c0,0-17.7-18.3-36.3-12.3c-18.6,5.9-7.8,49.3,38.2,43.9L891.3,514.5z"/>
<path class="st2" d="M885.5,550.5c-24.7,0-39.2-14.3-42.3-29c-2.4-11,1.9-20.2,10.7-23c20.7-6.6,39.5,12.5,40.3,13.3
	c1.5,1.6,1.4,4-0.1,5.5c-1.5,1.5-4,1.4-5.5-0.1c-0.2-0.2-16.3-16.4-32.3-11.3c-5.9,1.9-6.6,8.7-5.5,13.9c2.8,12.8,17.1,25.3,42,22.3
	c2.2-0.3,4.1,1.3,4.4,3.5c0.3,2.2-1.3,4.1-3.5,4.4C891,550.3,888.2,550.5,885.5,550.5z"/>
<path class="st5" d="M1059.6,1073.1c-0.6,8.5-10.9,8.2-15.4,4.8c0,0,3.3,10.1-16.5,22.3c-19.8,12.2-41.7,8.8-50.5-6.8
	c-8.7-15.6-18.7-17.2-18.7-17.2s-226.3-29.1-254.2-65.2c-13-16.8-11.6-80.9-1.4-149.8c13.5-90.9,42.2-190.2,72.8-199.6
	c101.9-31.4,68.7,123.5,42.1,218.6c-11.5,41.2-17.9,69.2-17.9,69.2l177.7,89.7c0,0,43.3-18.7,49.9-19S1060.2,1064.5,1059.6,1073.1z"
	/>
<path class="st2" d="M1003.9,1111.3c-3.5,0.1-7-0.3-10.3-1.2c-8.3-2-15.5-7.4-19.7-14.9c-7.3-13.1-15.1-15.2-16-15.4
	c-11.1-1.4-228.1-29.8-256.6-66.6c-15.3-19.8-11.2-91.8-2.1-152.7c10.3-69.9,37.9-191.1,75.4-202.7c24.4-7.5,43.2-5.1,55.8,7.2
	c27.2,26.5,24.3,97.2-8.9,216.1c-9.3,33.2-15.3,58-17.2,66.2l173.5,87.5c10-4.3,43.1-18.3,49.6-18.6c2.3,0,4.5,1.2,7.3,4.2
	c9.5,9.8,29.4,43.6,28.7,52.9l0,0c-0.1,4.1-2.6,7.7-6.3,9.4c-3,1.2-6.3,1.5-9.4,0.7c-1.3,5-5.6,12.2-18,19.9
	C1021.9,1108.2,1013,1111,1003.9,1111.3z M798.9,661.2c-7.5,0.3-15,1.6-22.1,3.9c-12.7,3.9-27,27.6-40.3,66.8
	c-11.9,35.2-22.8,82.4-29.8,129.7c-10.8,73.4-10.6,132.4,0.6,146.9c21.4,27.6,174,53.8,251.7,63.7c0.6,0.1,12,2.2,21.5,19.2
	c3.2,5.7,8.7,9.8,15,11.3c9.2,2.4,20.3,0.3,30.2-5.8c16.5-10.1,14.9-17.9,14.9-18c-0.6-1.5-0.1-3.3,1.3-4.2c1.4-1,3.4-0.9,4.7,0.2
	c2.2,1.5,4.9,1.8,7.4,1c1.2-0.5,1.9-1.7,1.9-3c0.5-6.9-22.1-45.3-28.6-48.9c-4.7,0.7-27.8,9.8-48.1,18.6c-1,0.4-2.2,0.4-3.2-0.1
	l-177.8-89.8c-1.6-0.8-2.4-2.5-2-4.2c0-0.3,6.5-28.5,17.9-69.4c31.9-114.4,35.6-184.5,11-208.6C818.5,664.2,809.8,661.1,798.9,661.2
	z M1059.6,1073.1L1059.6,1073.1z"/>
<path class="st6" d="M822.5,877.6l-129.2-17.8c13.5-90.9,45.5-185.7,82.3-198.3C876.5,627.1,849.1,782.5,822.5,877.6z"/>
<path class="st6" d="M822.6,881.4H822l-129.2-17.8c-2.1-0.3-3.5-2.2-3.3-4.3c0,0,0,0,0-0.1c12.9-87.4,45-187.7,84.9-201.3
	c24.6-8.4,43.7-6.4,56.7,6c37.9,35.8,13.2,149.9-4.9,214.8C825.7,880.3,824.3,881.4,822.6,881.4z M697.6,856.6l122.1,16.8
	c14.5-52.6,41.7-170.4,6.1-204c-10.8-10.2-27.3-11.7-49-4.3C742.2,676.9,711,769.7,697.6,856.6z"/>
<path class="st2" d="M828.2,860.2c-2.1,0-3.8-1.7-3.9-3.8c0-0.3,0-0.6,0.1-0.9c13.8-54.2,32.6-150.1,3.9-183.5
	c-7.7-9-18.3-12.7-32.4-11.3c-2.1,0.2-4-1.3-4.2-3.4c-0.2-2.1,1.3-4,3.4-4.2c16.5-1.6,29.6,3,38.9,13.9
	c29.4,34.2,15,122.4-2.3,190.3C831.4,859.1,829.9,860.2,828.2,860.2z"/>
<path class="st2" d="M816.5,851.5h-0.6l-113.9-15.1c-2.1-0.3-3.5-2.2-3.3-4.3c0.3-2.1,2.2-3.5,4.3-3.3l113.9,15
	c2.1,0.3,3.5,2.3,3.2,4.3C819.9,850,818.3,851.4,816.5,851.5z"/>
<g>
	<g>
		<path class="st9" d="M1913.2,1485.8c-6.6,0-12,5.4-12,12v12h-12c-6.6,0-12,5.4-12,12s5.4,12,12,12h24c6.6,0,12-5.4,12-12v-24
			C1925.2,1491.2,1919.8,1485.8,1913.2,1485.8z"/>
	</g>
</g>
<g>
	<g>
		<g>
			<path class="st9" d="M1589.9,1509.8h-42.7c-6.6,0-12,5.4-12,12s5.4,12,12,12h42.7c6.6,0,12-5.4,12-12
				S1596.5,1509.8,1589.9,1509.8z"/>
			<path class="st9" d="M1675.4,1509.8h-42.7c-6.6,0-12,5.4-12,12s5.4,12,12,12h42.7c6.6,0,12-5.4,12-12S1682,1509.8,1675.4,1509.8z
				"/>
			<path class="st9" d="M1846.4,1509.8h-42.7c-6.6,0-12,5.4-12,12s5.4,12,12,12h42.7c6.6,0,12-5.4,12-12S1853,1509.8,1846.4,1509.8z
				"/>
			<path class="st9" d="M1760.9,1509.8h-42.7c-6.6,0-12,5.4-12,12s5.4,12,12,12h42.7c6.6,0,12-5.4,12-12
				S1767.5,1509.8,1760.9,1509.8z"/>
		</g>
	</g>
</g>
<g>
	<g>
		<path class="st9" d="M1504.4,1509.8h-12v-12c0-6.6-5.4-12-12-12s-12,5.4-12,12v24c0,6.6,5.4,12,12,12h24c6.6,0,12-5.4,12-12
			S1511,1509.8,1504.4,1509.8z"/>
	</g>
</g>
<g>
	<g>
		<g>
			<path class="st9" d="M1480.4,1396c-6.6,0-12,5.4-12,12v44.9c0,6.6,5.4,12,12,12s12-5.4,12-12V1408
				C1492.4,1401.4,1487,1396,1480.4,1396z"/>
			<path class="st9" d="M1480.4,1306.3c-6.6,0-12,5.4-12,12v44.9c0,6.6,5.4,12,12,12s12-5.4,12-12v-44.9
				C1492.4,1311.6,1487,1306.3,1480.4,1306.3z"/>
		</g>
	</g>
</g>
<g>
	<g>
		<path class="st9" d="M1504.4,1237.3h-24c-6.6,0-12,5.4-12,12v24c0,6.6,5.4,12,12,12s12-5.4,12-12v-12h12c6.6,0,12-5.4,12-12
			S1511,1237.3,1504.4,1237.3z"/>
	</g>
</g>
<g>
	<g>
		<g>
			<path class="st9" d="M1589.9,1237.3h-42.7c-6.6,0-12,5.4-12,12s5.4,12,12,12h42.7c6.6,0,12-5.4,12-12
				S1596.5,1237.3,1589.9,1237.3z"/>
			<path class="st9" d="M1675.4,1237.3h-42.7c-6.6,0-12,5.4-12,12s5.4,12,12,12h42.7c6.6,0,12-5.4,12-12S1682,1237.3,1675.4,1237.3z
				"/>
			<path class="st9" d="M1846.4,1237.3h-42.7c-6.6,0-12,5.4-12,12s5.4,12,12,12h42.7c6.6,0,12-5.4,12-12S1853,1237.3,1846.4,1237.3z
				"/>
			<path class="st9" d="M1760.9,1237.3h-28.1c-6.6,0-12,5.4-12,12s5.4,12,12,12h28.1c6.6,0,12-5.4,12-12
				S1767.5,1237.3,1760.9,1237.3z"/>
		</g>
	</g>
</g>
<g>
	<g>
		<path class="st9" d="M1913.2,1237.3h-24c-6.6,0-12,5.4-12,12s5.4,12,12,12h12v12c0,6.6,5.4,12,12,12s12-5.4,12-12v-24
			C1925.2,1242.7,1919.8,1237.3,1913.2,1237.3z"/>
	</g>
</g>
<g>
	<g>
		<g>
			<path class="st9" d="M1913.2,1396c-6.6,0-12,5.4-12,12v44.9c0,6.6,5.4,12,12,12s12-5.4,12-12V1408
				C1925.2,1401.4,1919.8,1396,1913.2,1396z"/>
			<path class="st9" d="M1913.2,1306.3c-6.6,0-12,5.4-12,12v44.9c0,6.6,5.4,12,12,12s12-5.4,12-12v-44.9
				C1925.2,1311.6,1919.8,1306.3,1913.2,1306.3z"/>
		</g>
	</g>
</g>
<g>
	<g>
		<path class="st9" d="M1548.5,1305.5c-4.4,0-8,3.6-8,8v148.3c0,4.4,3.6,8,8,8s8-3.6,8-8v-148.3
			C1556.5,1309,1552.9,1305.5,1548.5,1305.5z"/>
	</g>
</g>
<g>
	<g>
		<path class="st9" d="M1656.7,1329.5c-4.4,0-8,3.6-8,8v124.2c0,4.4,3.6,8,8,8s8-3.6,8-8v-124.2
			C1664.7,1333.1,1661.1,1329.5,1656.7,1329.5z"/>
	</g>
</g>
<g>
	<g>
		<path class="st9" d="M1680.7,1305.5c-4.4,0-8,3.6-8,8v148.3c0,4.4,3.6,8,8,8s8-3.6,8-8v-148.3
			C1688.7,1309,1685.2,1305.5,1680.7,1305.5z"/>
	</g>
</g>
<g>
	<g>
		<path class="st9" d="M1821,1305.5c-4.4,0-8,3.6-8,8v148.3c0,4.4,3.6,8,8,8c4.4,0,8-3.6,8-8v-148.3
			C1829,1309,1825.4,1305.5,1821,1305.5z"/>
	</g>
</g>
<g>
	<g>
		<path class="st9" d="M1845,1305.5c-4.4,0-8,3.6-8,8v148.3c0,4.4,3.6,8,8,8c4.4,0,8-3.6,8-8v-148.3
			C1853.1,1309,1849.5,1305.5,1845,1305.5z"/>
	</g>
</g>
<g>
	<g>
		<path class="st9" d="M1748.9,1305.5c-4.4,0-8,3.6-8,8v148.3c0,4.4,3.6,8,8,8c4.4,0,8-3.6,8-8v-148.3
			C1756.9,1309,1753.3,1305.5,1748.9,1305.5z"/>
	</g>
</g>
<g>
	<g>
		<path class="st9" d="M1580.5,1305.7c-6.6,0-12,5.4-12,12v139.8c0,6.6,5.4,12,12,12c6.6,0,12-5.4,12-12v-139.8
			C1592.6,1311.1,1587.2,1305.7,1580.5,1305.7z"/>
	</g>
</g>
<g>
	<g>
		<path class="st9" d="M1612.6,1305.7c-6.6,0-12,5.4-12,12v139.8c0,6.6,5.4,12,12,12s12-5.4,12-12v-139.8
			C1624.6,1311.1,1619.2,1305.7,1612.6,1305.7z"/>
	</g>
</g>
<g>
	<g>
		<path class="st9" d="M1712.8,1305.7c-6.6,0-12,5.4-12,12v139.8c0,6.6,5.4,12,12,12c6.6,0,12-5.4,12-12v-139.8
			C1724.8,1311.1,1719.4,1305.7,1712.8,1305.7z"/>
	</g>
</g>
<g>
	<g>
		<path class="st9" d="M1792.9,1305.7c-6.6,0-12,5.4-12,12v139.8c0,6.6,5.4,12,12,12s12-5.4,12-12v-139.8
			C1805,1311.1,1799.6,1305.7,1792.9,1305.7z"/>
	</g>
</g>
<g>
	<g>
		<path class="st9" d="M2399.1,1449c-5.1,0-9.3,4.2-9.3,9.3v9.3h-9.3c-5.1,0-9.3,4.2-9.3,9.3c0,5.1,4.2,9.3,9.3,9.3h18.6
			c5.1,0,9.3-4.2,9.3-9.3v-18.6C2408.4,1453.1,2404.2,1449,2399.1,1449z"/>
	</g>
</g>
<g>
	<g>
		<g>
			<path class="st9" d="M2149.6,1467.5h-33c-5.1,0-9.3,4.2-9.3,9.3c0,5.1,4.2,9.3,9.3,9.3h33c5.1,0,9.3-4.2,9.3-9.3
				C2158.8,1471.7,2154.7,1467.5,2149.6,1467.5z"/>
			<path class="st9" d="M2215.6,1467.5h-33c-5.1,0-9.3,4.2-9.3,9.3c0,5.1,4.2,9.3,9.3,9.3h33c5.1,0,9.3-4.2,9.3-9.3
				C2224.8,1471.7,2220.7,1467.5,2215.6,1467.5z"/>
			<path class="st9" d="M2347.5,1467.5h-33c-5.1,0-9.3,4.2-9.3,9.3c0,5.1,4.2,9.3,9.3,9.3h33c5.1,0,9.3-4.2,9.3-9.3
				C2356.8,1471.7,2352.7,1467.5,2347.5,1467.5z"/>
			<path class="st9" d="M2281.5,1467.5h-33c-5.1,0-9.3,4.2-9.3,9.3c0,5.1,4.2,9.3,9.3,9.3h33c5.1,0,9.3-4.2,9.3-9.3
				C2290.8,1471.7,2286.7,1467.5,2281.5,1467.5z"/>
		</g>
	</g>
</g>
<g>
	<g>
		<path class="st9" d="M2083.6,1467.5h-9.3v-9.3c0-5.1-4.2-9.3-9.3-9.3c-5.1,0-9.3,4.2-9.3,9.3v18.6c0,5.1,4.2,9.3,9.3,9.3h18.6
			c5.1,0,9.3-4.2,9.3-9.3C2092.8,1471.7,2088.7,1467.5,2083.6,1467.5z"/>
	</g>
</g>
<g>
	<g>
		<g>
			<path class="st9" d="M2065,1379.7c-5.1,0-9.3,4.2-9.3,9.3v34.6c0,5.1,4.2,9.3,9.3,9.3c5.1,0,9.3-4.2,9.3-9.3V1389
				C2074.3,1383.8,2070.1,1379.7,2065,1379.7z"/>
			<path class="st9" d="M2065,1310.4c-5.1,0-9.3,4.2-9.3,9.3v34.6c0,5.1,4.2,9.3,9.3,9.3c5.1,0,9.3-4.2,9.3-9.3v-34.6
				C2074.3,1314.6,2070.1,1310.4,2065,1310.4z"/>
		</g>
	</g>
</g>
<g>
	<g>
		<path class="st9" d="M2083.6,1257.2H2065c-5.1,0-9.3,4.2-9.3,9.3v18.6c0,5.1,4.2,9.3,9.3,9.3c5.1,0,9.3-4.2,9.3-9.3v-9.3h9.3
			c5.1,0,9.3-4.2,9.3-9.3S2088.7,1257.2,2083.6,1257.2z"/>
	</g>
</g>
<g>
	<g>
		<g>
			<path class="st9" d="M2149.6,1257.2h-33c-5.1,0-9.3,4.2-9.3,9.3c0,5.1,4.2,9.3,9.3,9.3h33c5.1,0,9.3-4.2,9.3-9.3
				S2154.7,1257.2,2149.6,1257.2z"/>
			<path class="st9" d="M2215.6,1257.2h-33c-5.1,0-9.3,4.2-9.3,9.3c0,5.1,4.2,9.3,9.3,9.3h33c5.1,0,9.3-4.2,9.3-9.3
				S2220.7,1257.2,2215.6,1257.2z"/>
			<path class="st9" d="M2347.5,1257.2h-33c-5.1,0-9.3,4.2-9.3,9.3c0,5.1,4.2,9.3,9.3,9.3h33c5.1,0,9.3-4.2,9.3-9.3
				S2352.7,1257.2,2347.5,1257.2z"/>
			<path class="st9" d="M2281.5,1257.2h-21.7c-5.1,0-9.3,4.2-9.3,9.3c0,5.1,4.2,9.3,9.3,9.3h21.7c5.1,0,9.3-4.2,9.3-9.3
				S2286.7,1257.2,2281.5,1257.2z"/>
		</g>
	</g>
</g>
<g>
	<g>
		<path class="st9" d="M2399.1,1257.2h-18.6c-5.1,0-9.3,4.2-9.3,9.3c0,5.1,4.2,9.3,9.3,9.3h9.3v9.3c0,5.1,4.2,9.3,9.3,9.3
			c5.1,0,9.3-4.2,9.3-9.3v-18.6C2408.4,1261.3,2404.2,1257.2,2399.1,1257.2z"/>
	</g>
</g>
<g>
	<g>
		<g>
			<path class="st9" d="M2399.1,1379.7c-5.1,0-9.3,4.2-9.3,9.3v34.6c0,5.1,4.2,9.3,9.3,9.3c5.1,0,9.3-4.2,9.3-9.3V1389
				C2408.4,1383.9,2404.2,1379.7,2399.1,1379.7z"/>
			<path class="st9" d="M2399.1,1310.4c-5.1,0-9.3,4.2-9.3,9.3v34.6c0,5.1,4.2,9.3,9.3,9.3c5.1,0,9.3-4.2,9.3-9.3v-34.6
				C2408.4,1314.6,2404.2,1310.4,2399.1,1310.4z"/>
		</g>
	</g>
</g>
<g>
	<g>
		<path class="st9" d="M2117.6,1309.8c-3.4,0-6.2,2.8-6.2,6.2v114.5c0,3.4,2.8,6.2,6.2,6.2c3.4,0,6.2-2.8,6.2-6.2V1316
			C2123.8,1312.6,2121,1309.8,2117.6,1309.8z"/>
	</g>
</g>
<g>
	<g>
		<path class="st9" d="M2201.1,1328.3c-3.4,0-6.2,2.8-6.2,6.2v95.9c0,3.4,2.8,6.2,6.2,6.2c3.4,0,6.2-2.8,6.2-6.2v-95.9
			C2207.3,1331.1,2204.5,1328.3,2201.1,1328.3z"/>
	</g>
</g>
<g>
	<g>
		<path class="st9" d="M2219.7,1309.8c-3.4,0-6.2,2.8-6.2,6.2v114.5c0,3.4,2.8,6.2,6.2,6.2c3.4,0,6.2-2.8,6.2-6.2V1316
			C2225.9,1312.6,2223.1,1309.8,2219.7,1309.8z"/>
	</g>
</g>
<g>
	<g>
		<path class="st9" d="M2327.9,1309.8c-3.4,0-6.2,2.8-6.2,6.2v114.5c0,3.4,2.8,6.2,6.2,6.2s6.2-2.8,6.2-6.2V1316
			C2334.1,1312.6,2331.4,1309.8,2327.9,1309.8z"/>
	</g>
</g>
<g>
	<g>
		<path class="st9" d="M2346.5,1309.8c-3.4,0-6.2,2.8-6.2,6.2v114.5c0,3.4,2.8,6.2,6.2,6.2c3.4,0,6.2-2.8,6.2-6.2V1316
			C2352.7,1312.6,2349.9,1309.8,2346.5,1309.8z"/>
	</g>
</g>
<g>
	<g>
		<path class="st9" d="M2272.3,1309.8c-3.4,0-6.2,2.8-6.2,6.2v114.5c0,3.4,2.8,6.2,6.2,6.2s6.2-2.8,6.2-6.2V1316
			C2278.5,1312.6,2275.7,1309.8,2272.3,1309.8z"/>
	</g>
</g>
<g>
	<g>
		<path class="st9" d="M2142.3,1310c-5.1,0-9.3,4.2-9.3,9.3v107.9c0,5.1,4.2,9.3,9.3,9.3s9.3-4.2,9.3-9.3v-107.9
			C2151.6,1314.1,2147.5,1310,2142.3,1310z"/>
	</g>
</g>
<g>
	<g>
		<path class="st9" d="M2167.1,1310c-5.1,0-9.3,4.2-9.3,9.3v107.9c0,5.1,4.2,9.3,9.3,9.3c5.1,0,9.3-4.2,9.3-9.3v-107.9
			C2176.4,1314.1,2172.2,1310,2167.1,1310z"/>
	</g>
</g>
<g>
	<g>
		<path class="st9" d="M2244.4,1310c-5.1,0-9.3,4.2-9.3,9.3v107.9c0,5.1,4.2,9.3,9.3,9.3c5.1,0,9.3-4.2,9.3-9.3v-107.9
			C2253.7,1314.1,2249.6,1310,2244.4,1310z"/>
	</g>
</g>
<g>
	<g>
		<path class="st9" d="M2306.3,1310c-5.1,0-9.3,4.2-9.3,9.3v107.9c0,5.1,4.2,9.3,9.3,9.3s9.3-4.2,9.3-9.3v-107.9
			C2315.6,1314.1,2311.4,1310,2306.3,1310z"/>
	</g>
</g>
<path class="st6" d="M1399.6,681.5l-19.7-4.1c-0.4-0.1-0.9,0.2-1,0.6l-0.1,0.7c-0.4,1.7-2,2.9-3.7,2.6c-1.8-0.3-3-2-2.7-3.8l0.2-0.8
	c0.1-0.4-0.2-0.9-0.6-1l-60.6-12.5c-0.9-0.2-1.7,0.4-1.9,1.2l-9.8,47.2c-0.2,0.9,0.4,1.7,1.2,1.9l60.6,12.5c0.4,0.1,0.9-0.2,1-0.6
	l0.1-0.7c0.4-1.7,2-2.9,3.7-2.6c1.8,0.3,3,2,2.7,3.8l-0.2,0.8c-0.1,0.4,0.2,0.9,0.6,1l19.7,4.1c0.9,0.2,1.7-0.4,1.9-1.2l9.8-47.2
	C1401,682.5,1400.4,681.7,1399.6,681.5z M1369.1,717.9c-0.2,0.9-1,1.4-1.9,1.2c-0.9-0.2-1.4-1-1.2-1.9l0.7-3.1
	c0.2-0.9,1-1.4,1.9-1.2c0.9,0.2,1.4,1,1.2,1.9L1369.1,717.9z M1371,708.4c-0.2,0.9-1,1.4-1.9,1.2s-1.4-1-1.2-1.9l0.7-3.1
	c0.2-0.9,1-1.4,1.9-1.2c0.9,0.2,1.4,1,1.2,1.9L1371,708.4z M1373,699c-0.2,0.9-1,1.4-1.9,1.2c-0.9-0.2-1.4-1-1.2-1.9l0.7-3.1
	c0.2-0.9,1-1.4,1.9-1.2c0.9,0.2,1.4,1,1.2,1.9L1373,699z M1374.9,689.5c-0.2,0.9-1,1.4-1.9,1.2s-1.4-1-1.2-1.9l0.7-3.1
	c0.2-0.9,1-1.4,1.9-1.2s1.4,1,1.2,1.9L1374.9,689.5z"/>
<g>
	<path class="st5" d="M1318.8,708.6c-0.5-0.1-1-0.4-1.3-0.8c-0.6-0.9-0.4-2.2,0.5-2.8l33.7-23.3c0.9-0.6,2.2-0.4,2.8,0.5
		c0.6,0.9,0.4,2.2-0.5,2.8l-33.7,23.3C1319.9,708.6,1319.4,708.7,1318.8,708.6z"/>
	<path class="st5" d="M1326.8,692c-4.6-0.8-7.6-5.2-6.8-9.8c0.8-4.6,5.2-7.6,9.8-6.8c4.6,0.8,7.6,5.2,6.8,9.8
		C1335.7,689.8,1331.3,692.9,1326.8,692z M1329.1,679.4c-2.4-0.4-4.7,1.2-5.1,3.6s1.2,4.7,3.6,5.1c2.4,0.4,4.7-1.2,5.1-3.6
		C1333.1,682.1,1331.5,679.8,1329.1,679.4z"/>
	<path class="st5" d="M1342.3,714.5c-4.6-0.8-7.6-5.2-6.8-9.8c0.8-4.6,5.2-7.6,9.8-6.8c4.6,0.8,7.6,5.2,6.8,9.8
		C1351.3,712.3,1346.9,715.3,1342.3,714.5z M1344.6,701.8c-2.4-0.4-4.7,1.2-5.1,3.6c-0.4,2.4,1.2,4.7,3.6,5.1
		c2.4,0.4,4.7-1.2,5.1-3.6C1348.6,704.6,1347,702.3,1344.6,701.8z"/>
</g>
<path class="st6" d="M1375.3,685.8l-0.6,3.2c-0.2,0.9-1,1.5-1.9,1.3l-0.6,3.2c0.9,0.2,1.5,1,1.3,1.9l-0.6,3.2
	c-0.2,0.9-1,1.5-1.9,1.3l-0.6,3.2c0.9,0.2,1.5,1,1.3,1.9l-0.6,3.2c-0.2,0.9-1,1.5-1.9,1.3l-0.6,3.2c0.9,0.2,1.5,1,1.3,1.9l-0.6,3.2
	c-0.2,0.9-1,1.5-1.9,1.3l-0.6,3.2c1.7,0.3,2.9,2,2.6,3.7l-0.1,0.8c-0.1,0.4,0.2,0.9,0.6,0.9l19.8,3.6c0.9,0.2,1.7-0.4,1.9-1.3
	l8.6-47.5c0.2-0.9-0.4-1.7-1.3-1.9l-19.8-3.6c-0.4-0.1-0.9,0.2-0.9,0.6l-0.1,0.8c-0.3,1.7-2,2.9-3.7,2.6l-0.6,3.2
	C1374.9,684.1,1375.5,684.9,1375.3,685.8z"/>
<g id="XMLID_1318_">
	<polygon id="XMLID_1319_" class="st10" points="1432.9,1457 1497.5,1461.1 1497.5,1586.2 1441,1590.3 	"/>
	<polygon id="XMLID_1320_" class="st11" points="1441,1590.3 1384.5,1586.2 1384.5,1461.1 1441,1457 	"/>
	<polygon id="XMLID_1321_" class="st11" points="1441,1574.1 1432.9,1526.6 1441,1473.2 1485.4,1473.2 1485.4,1574.1 	"/>
	<rect id="XMLID_1322_" x="1396.6" y="1473.2" class="st5" width="44.4" height="100.9"/>
	<polygon id="XMLID_1323_" class="st12" points="1441,1634.7 1428.9,1610.9 1441,1586.2 1497.5,1586.2 1497.5,1634.7 	"/>
	<rect id="XMLID_1324_" x="1384.5" y="1586.2" class="st6" width="56.5" height="48.5"/>
	<polygon id="XMLID_1325_" class="st13" points="1441,1449 1497.5,1449 1497.5,1461.1 1441,1461.1 1432.9,1455 	"/>
	<path id="XMLID_1326_" class="st10" d="M1441,1598.4l-8.1,12.1l8.1,12.1c6.7,0,12.1-5.4,12.1-12.1S1447.7,1598.4,1441,1598.4z"/>
	<path id="XMLID_1327_" class="st11" d="M1428.9,1610.5c0,6.7,5.4,12.1,12.1,12.1v-24.2C1434.3,1598.4,1428.9,1603.8,1428.9,1610.5z
		"/>
	<rect id="XMLID_1328_" x="1384.5" y="1449" class="st6" width="56.5" height="12.1"/>
</g>
<g id="XMLID_1_">
	<polygon id="XMLID_11_" class="st10" points="2040.7,1438.3 2091.2,1441.5 2091.2,1539.2 2047,1542.4 	"/>
	<polygon id="XMLID_10_" class="st11" points="2047,1542.4 2002.9,1539.2 2002.9,1441.5 2047,1438.3 	"/>
	<polygon id="XMLID_9_" class="st11" points="2047,1529.7 2040.7,1492.6 2047,1450.9 2081.7,1450.9 2081.7,1529.7 	"/>
	<rect id="XMLID_8_" x="2012.3" y="1450.9" class="st5" width="34.7" height="78.8"/>
	<polygon id="XMLID_7_" class="st14" points="2047,1577 2037.6,1558.4 2047,1539.2 2091.2,1539.2 2091.2,1577 	"/>
	<rect id="XMLID_6_" x="2002.9" y="1539.2" class="st7" width="44.1" height="37.8"/>
	<polygon id="XMLID_5_" class="st14" points="2047,1432 2091.2,1432 2091.2,1441.5 2047,1441.5 2040.7,1436.7 	"/>
	<path id="XMLID_4_" class="st10" d="M2047,1548.7l-6.3,9.5l6.3,9.5c5.2,0,9.5-4.2,9.5-9.5S2052.2,1548.7,2047,1548.7z"/>
	<path id="XMLID_3_" class="st11" d="M2037.6,1558.1c0,5.2,4.2,9.5,9.5,9.5v-18.9C2041.8,1548.7,2037.6,1552.9,2037.6,1558.1z"/>
	<rect id="XMLID_2_" x="2002.9" y="1432" class="st7" width="44.1" height="9.5"/>
</g>
</svg>
